<svg xmlns="http://www.w3.org/2000/svg" width="479" height="290" fill="none" viewBox="0 0 479 290"><path fill="#21242C" d="M252.538 31.0682C252.538 28.1908 251.867 25.9629 250.594 24.3333C249.344 22.7428 247.431 21.9164 244.765 21.9164C242.113 21.9164 240.008 22.7822 238.311 24.5063L238.31 24.5072C236.623 26.2119 235.753 28.6768 235.753 31.9812V32.4812H235.734V51.8406H230.104V31.0682C230.104 28.1416 229.432 25.9074 228.163 24.3085C226.915 22.7461 224.984 21.9257 222.266 21.9257C219.565 21.9257 217.453 22.793 215.776 24.5137C214.107 26.2264 213.244 28.5685 213.244 31.5992V51.8499H207.614V17.665H213.049V21.5263C214.008 20.2151 215.166 19.1746 216.527 18.4134C218.366 17.3854 220.545 16.8824 223.048 16.8824C225.743 16.8824 228.053 17.4296 229.952 18.5508C231.617 19.5337 232.941 20.9432 233.927 22.7608C234.982 21.2313 236.4 19.9188 238.176 18.8205C240.27 17.5254 242.73 16.8824 245.547 16.8824C249.525 16.8824 252.666 18.1238 254.886 20.6685C257.083 23.1863 258.168 26.3647 258.168 30.1552V51.8406H252.538V31.0682Z" clipRule="evenodd" fillRule="evenodd"/><path fill="#21242C" d="M297.79 51.8499V17.665H292.356V22.5244C289.714 18.753 285.654 16.8824 280.278 16.8824C275.275 16.8824 271.297 18.6311 268.414 22.1521C265.547 25.642 264.127 29.8659 264.127 34.7947C264.127 39.7235 265.548 43.9391 268.416 47.4019C271.308 50.8936 275.285 52.6324 280.278 52.6324C283.296 52.6324 285.908 52.0444 288.093 50.8436C289.786 49.9136 291.206 48.6251 292.356 46.9868V51.8499H297.79ZM272.928 25.6895L273.046 25.5497V25.5431C275.081 23.2216 277.768 22.0469 281.182 22.0469C284.665 22.0469 287.359 23.2509 289.34 25.6478C291.341 28.069 292.356 31.137 292.356 34.7854C292.356 38.4314 291.342 41.435 289.34 43.8577C287.359 46.2545 284.656 47.4587 281.182 47.4587C277.708 47.4587 274.974 46.2543 272.926 43.8519C270.861 41.4295 269.822 38.4188 269.822 34.7854C269.822 31.152 270.861 28.1313 272.928 25.6895Z" clipRule="evenodd" fillRule="evenodd"/><path fill="#21242C" d="M323.737 22.8201V17.4327L322.143 17.3389H322.128C319.325 17.3389 316.962 17.9014 315.081 19.0729C313.825 19.8555 312.792 20.7247 311.998 21.6872V17.6557H306.563V51.8405H312.194V32.5029C312.194 29.249 313.08 26.844 314.78 25.2048C316.497 23.5491 318.759 22.7083 321.606 22.7083C322.164 22.7083 322.689 22.7266 323.192 22.7715L323.737 22.8201Z" clipRule="evenodd" fillRule="evenodd"/><path fill="#21242C" d="M333.118 17.665H327.488V38.7635C327.488 42.7842 328.698 46.1177 331.145 48.7205C333.614 51.3461 337.173 52.6231 341.748 52.6231C346.323 52.6231 349.882 51.3461 352.351 48.7205C354.798 46.1177 356.008 42.7842 356.008 38.7635V17.665H350.378V38.4374C350.378 41.3992 349.619 43.6297 348.163 45.2067C346.717 46.7728 344.613 47.5892 341.748 47.5892C338.884 47.5892 336.779 46.7728 335.333 45.2067C333.877 43.6297 333.118 41.3992 333.118 38.4374V17.665Z" clipRule="evenodd" fillRule="evenodd"/><path fill="url(#paint0_linear_2479_1607)" d="M163.006 6.87071L181.717 17.1907C183.311 18.065 184.4 19.6507 184.648 21.4679L187.828 44.7736C188.231 47.7564 186.765 50.6793 184.134 52.1107L164.652 62.7307C159.107 65.7564 152.413 65.7564 146.859 62.7307L127.377 52.1107C124.745 50.6793 123.271 47.7564 123.683 44.7736L126.862 21.4679C127.111 19.6593 128.199 18.0736 129.794 17.1907L148.504 6.87071C153.021 4.37643 158.49 4.37643 163.006 6.87071ZM152.036 16.2393L142.093 21.6736H142.102C140.31 22.6507 140.319 25.2136 142.11 26.1821L152.121 31.5907C154.315 32.7821 156.955 32.7736 159.141 31.5907L169.572 25.9336C171.149 25.0764 171.158 22.8136 169.572 21.9478L159.098 16.2393C156.895 15.0393 154.238 15.0393 152.036 16.2393Z" clipRule="evenodd" fillRule="evenodd"/><path stroke="#DDDEE3" stroke-linecap="round" stroke-width="3" d="M259.614 130L219.614 170M219.614 130L259.614 170"/><path fill="#2E3F62" d="M121.144 268.271H133.019V265.714H121.144V268.271ZM119.153 271.69C118.085 271.69 117.219 270.825 117.219 269.757V260.361C117.219 259.277 118.098 258.399 119.182 258.399C120.266 258.399 121.144 259.277 121.144 260.361V262.272H133.019V260.361C133.019 259.277 133.898 258.399 134.982 258.399C136.066 258.399 136.944 259.277 136.944 260.361V269.757C136.944 270.825 136.078 271.69 135.01 271.69H119.153ZM125.374 281.031V277.261H117.525C116.631 277.261 115.904 276.534 115.904 275.64V275.54C115.904 274.643 116.631 273.919 117.525 273.919H136.966C137.864 273.919 138.591 274.643 138.591 275.54V275.64C138.591 276.534 137.864 277.261 136.966 277.261H129.121V281.031C129.121 281.925 128.394 282.655 127.496 282.655H126.995C126.097 282.655 125.374 281.925 125.374 281.031Z"/><path fill="#2E3F62" d="M162.302 266.754H160.871V280.759C160.871 281.721 160.089 282.502 159.124 282.502H144.109C143.144 282.502 142.362 281.721 142.362 280.759V276.4C142.362 275.435 143.144 274.654 144.109 274.654H144.183C145.148 274.654 145.93 275.435 145.93 276.4V279.057H157.223V260.372C157.223 259.365 158.04 258.548 159.047 258.548C160.054 258.548 160.871 259.365 160.871 260.372V263.183H162.302C163.286 263.183 164.087 263.984 164.087 264.969C164.087 265.953 163.286 266.754 162.302 266.754ZM150.381 260.575L153.518 268.221C154.016 269.443 153.119 270.778 151.8 270.778C151.05 270.778 150.375 270.327 150.089 269.636L147.554 263.537L145.013 269.636C144.727 270.327 144.051 270.778 143.302 270.778C141.986 270.778 141.085 269.443 141.587 268.221L144.723 260.575C145.193 259.426 146.309 258.677 147.554 258.677C148.792 258.677 149.909 259.426 150.381 260.575Z"/><path fill="#2E3F62" d="M180.747 272.562L175.861 263.083L170.972 272.562C170.615 273.257 169.901 273.694 169.122 273.694C167.565 273.694 166.555 272.041 167.269 270.655L172.355 260.767C173.03 259.451 174.381 258.628 175.858 258.628C177.334 258.628 178.688 259.451 179.364 260.767L184.449 270.655C185.163 272.041 184.157 273.694 182.6 273.694C181.818 273.694 181.104 273.257 180.747 272.562ZM173.96 279.188V274.273C173.96 273.225 174.809 272.372 175.858 272.372C176.909 272.372 177.759 273.225 177.759 274.273V279.188H185.089C186.003 279.188 186.746 279.928 186.746 280.845C186.746 281.758 186.003 282.505 185.089 282.505H166.629C165.716 282.505 164.973 281.758 164.973 280.845C164.973 279.928 165.716 279.188 166.629 279.188H173.96Z"/><path fill="#2E3F62" d="M197.506 269.841H203.026V262.121H197.506V269.841ZM210.042 271.6C210.042 272.517 209.298 273.26 208.382 273.26H191.926C191.009 273.26 190.266 272.517 190.266 271.6V271.504C190.266 270.587 191.009 269.841 191.926 269.841H193.63V262.121H191.926C191.009 262.121 190.266 261.375 190.266 260.461V260.333C190.266 259.419 191.009 258.676 191.926 258.676H208.382C209.298 258.676 210.042 259.419 210.042 260.333V260.461C210.042 261.375 209.298 262.121 208.382 262.121H206.899V269.841H208.382C209.298 269.841 210.042 270.587 210.042 271.504V271.6ZM211.052 280.845C211.052 281.758 210.312 282.505 209.392 282.505H190.938C190.021 282.505 189.278 281.758 189.278 280.845C189.278 279.928 190.021 279.185 190.938 279.185H209.392C210.312 279.185 211.052 279.928 211.052 280.845Z"/><path fill="#2E3F62" d="M234.195 260.386C234.195 261.329 233.429 262.094 232.487 262.094H218.723V265.008H232.487C233.429 265.008 234.195 265.771 234.195 266.716C234.195 267.659 233.429 268.424 232.487 268.424H218.723V271.133H232.487C233.429 271.133 234.195 271.898 234.195 272.841C234.195 273.786 233.429 274.549 232.487 274.549H216.735C215.667 274.549 214.802 273.687 214.802 272.619V260.608C214.802 259.54 215.667 258.678 216.735 258.678H232.487C233.429 258.678 234.195 259.44 234.195 260.386ZM235.359 280.844C235.359 281.76 234.616 282.503 233.699 282.503H215.242C214.329 282.503 213.586 281.76 213.586 280.844C213.586 279.927 214.329 279.187 215.242 279.187H233.699C234.616 279.187 235.359 279.927 235.359 280.844Z"/><path fill="#2E3F62" d="M257.566 282.503H257.414C256.478 282.503 255.716 281.744 255.716 280.808V260.245C255.716 259.308 256.478 258.549 257.414 258.549H257.566C258.505 258.549 259.261 259.308 259.261 260.245V280.808C259.261 281.744 258.505 282.503 257.566 282.503ZM241.563 265.79C241.563 266.079 241.614 266.353 241.717 266.613C241.817 266.877 241.959 267.109 242.148 267.308C242.332 267.514 242.547 267.675 242.792 267.794C243.036 267.91 243.31 267.968 243.615 267.968C243.921 267.968 244.191 267.91 244.439 267.794C244.683 267.675 244.899 267.514 245.082 267.308C245.268 267.109 245.413 266.877 245.513 266.613C245.616 266.353 245.664 266.079 245.664 265.79V264.195C245.664 263.928 245.616 263.661 245.513 263.4C245.413 263.136 245.268 262.905 245.082 262.702C244.899 262.499 244.683 262.332 244.439 262.207C244.191 262.081 243.921 262.02 243.615 262.02C243.31 262.02 243.036 262.081 242.792 262.207C242.547 262.332 242.332 262.499 242.148 262.702C241.959 262.905 241.817 263.136 241.717 263.4C241.614 263.661 241.563 263.928 241.563 264.195V265.79ZM249.312 265.993C249.312 266.755 249.173 267.463 248.894 268.119C248.617 268.778 248.231 269.357 247.742 269.853C247.253 270.354 246.674 270.744 246.008 271.02C245.342 271.3 244.628 271.438 243.869 271.438H243.361C242.602 271.438 241.888 271.3 241.222 271.02C240.556 270.744 239.977 270.354 239.488 269.853C238.999 269.357 238.613 268.778 238.337 268.119C238.057 267.463 237.919 266.755 237.919 265.993V263.992C237.919 263.236 238.057 262.525 238.337 261.866C238.613 261.209 238.999 260.631 239.488 260.132C239.977 259.633 240.556 259.247 241.222 258.968C241.888 258.691 242.602 258.549 243.361 258.549H243.869C244.628 258.549 245.342 258.691 246.008 258.968C246.674 259.247 247.253 259.633 247.742 260.132C248.231 260.631 248.617 261.209 248.894 261.866C249.173 262.525 249.312 263.236 249.312 263.992V265.993ZM247.481 280.818C247.481 279.888 248.234 279.132 249.167 279.132H250.73V276.196H245.513V280.808C245.513 281.744 244.757 282.503 243.818 282.503H243.667C242.731 282.503 241.968 281.744 241.968 280.808V276.196H239.337C238.401 276.196 237.639 275.437 237.639 274.501C237.639 273.564 238.401 272.802 239.337 272.802H250.705V260.245C250.705 259.308 251.464 258.549 252.403 258.549H252.551C253.49 258.549 254.249 259.308 254.249 260.245V280.567C254.249 281.635 253.384 282.503 252.316 282.503H249.167C248.234 282.503 247.481 281.748 247.481 280.818Z"/><path fill="#2E3F62" d="M269.061 262.071C268.707 262.071 268.37 262.138 268.048 262.27C267.726 262.405 267.446 262.589 267.199 262.817C266.954 263.045 266.764 263.316 266.633 263.624C266.494 263.94 266.427 264.274 266.427 264.628V276.426C266.427 276.78 266.494 277.108 266.633 277.414C266.764 277.716 266.954 277.983 267.199 278.212C267.446 278.44 267.726 278.623 268.048 278.755C268.37 278.89 268.707 278.958 269.061 278.958C269.431 278.958 269.778 278.89 270.1 278.755C270.419 278.623 270.698 278.44 270.936 278.212C271.171 277.983 271.355 277.716 271.493 277.414C271.625 277.108 271.696 276.78 271.696 276.426V264.628C271.696 264.274 271.625 263.94 271.493 263.624C271.355 263.316 271.171 263.045 270.936 262.817C270.698 262.589 270.419 262.405 270.1 262.27C269.778 262.138 269.431 262.071 269.061 262.071ZM269.061 258.549C269.923 258.549 270.731 258.706 271.493 259.018C272.252 259.33 272.915 259.761 273.481 260.311C274.044 260.858 274.491 261.505 274.822 262.248C275.15 262.991 275.314 263.782 275.314 264.628V266.979H279.518V260.334C279.518 259.349 280.319 258.549 281.304 258.549C282.288 258.549 283.089 259.349 283.089 260.334V280.717C283.089 281.705 282.288 282.506 281.304 282.506C280.319 282.506 279.518 281.705 279.518 280.717V270.302H275.314V276.426C275.314 277.269 275.15 278.064 274.822 278.804C274.491 279.55 274.044 280.193 273.481 280.743C272.915 281.293 272.252 281.721 271.493 282.033C270.731 282.348 269.923 282.506 269.061 282.506C268.199 282.506 267.389 282.348 266.633 282.033C265.87 281.721 265.211 281.293 264.654 280.743C264.098 280.193 263.654 279.55 263.326 278.804C262.998 278.064 262.831 277.269 262.831 276.426V264.628C262.831 263.782 262.998 262.991 263.326 262.248C263.654 261.505 264.098 260.858 264.654 260.311C265.211 259.761 265.87 259.33 266.633 259.018C267.389 258.706 268.199 258.549 269.061 258.549Z"/><path fill="#2E3F62" d="M303.114 280.757V260.296C303.114 259.331 303.896 258.549 304.861 258.549H304.964C305.929 258.549 306.711 259.331 306.711 260.296V266.523L307.984 266.517C308.933 266.51 309.702 267.279 309.702 268.225C309.702 269.164 308.943 269.93 308.004 269.936L306.711 269.946V280.757C306.711 281.722 305.929 282.503 304.964 282.503H304.861C303.896 282.503 303.114 281.722 303.114 280.757ZM291.29 278.956H295.974V262.094H291.29V278.956ZM287.392 280.654V260.425C287.392 259.456 288.173 258.678 289.138 258.678H298.129C299.094 258.678 299.875 259.456 299.875 260.425V280.654C299.875 281.619 299.094 282.401 298.129 282.401H289.138C288.173 282.401 287.392 281.619 287.392 280.654Z"/><path fill="#2E3F62" d="M329.75 282.503C328.672 282.503 327.801 281.632 327.801 280.554V260.499C327.801 259.421 328.672 258.549 329.75 258.549C330.824 258.549 331.699 259.421 331.699 260.499V280.554C331.699 281.632 330.824 282.503 329.75 282.503ZM317.672 262.146C317.318 262.146 316.98 262.213 316.658 262.348C316.34 262.48 316.057 262.663 315.812 262.892C315.565 263.12 315.378 263.39 315.243 263.702C315.105 264.014 315.037 264.346 315.037 264.703V276.35C315.037 276.704 315.105 277.038 315.243 277.347C315.378 277.662 315.565 277.929 315.812 278.158C316.057 278.389 316.34 278.566 316.658 278.701C316.98 278.837 317.318 278.907 317.672 278.907H318.814C319.164 278.907 319.496 278.837 319.798 278.701C320.103 278.566 320.367 278.383 320.596 278.148C320.824 277.91 321.001 277.634 321.13 277.325C321.255 277.013 321.319 276.688 321.319 276.35V264.703C321.319 264.365 321.255 264.043 321.13 263.738C321.001 263.435 320.83 263.165 320.608 262.93C320.39 262.692 320.129 262.503 319.824 262.361C319.521 262.216 319.2 262.146 318.862 262.146H317.672ZM319.013 258.549C319.843 258.549 320.615 258.713 321.332 259.042C322.049 259.373 322.674 259.82 323.204 260.386C323.738 260.952 324.153 261.605 324.456 262.348C324.761 263.091 324.912 263.876 324.912 264.703V276.35C324.912 277.177 324.758 277.962 324.446 278.701C324.134 279.448 323.706 280.101 323.169 280.667C322.625 281.23 321.988 281.677 321.255 282.008C320.522 282.336 319.74 282.503 318.913 282.503H317.672C316.813 282.503 316.002 282.339 315.243 282.021C314.481 281.699 313.825 281.262 313.265 280.702C312.712 280.149 312.268 279.496 311.936 278.756C311.608 278.013 311.444 277.209 311.444 276.35V264.703C311.444 263.841 311.608 263.04 311.936 262.297C312.268 261.554 312.712 260.904 313.265 260.344C313.825 259.788 314.481 259.354 315.243 259.029C316.002 258.71 316.813 258.549 317.672 258.549H319.013Z"/><path fill="#2E3F62" d="M351.044 273.344L346.003 263.308L340.963 273.344C340.622 274.022 339.93 274.45 339.171 274.45C337.692 274.45 336.72 272.903 337.364 271.571L342.555 260.793C343.192 259.471 344.533 258.628 346.003 258.628C347.473 258.628 348.815 259.471 349.452 260.793L354.646 271.571C355.287 272.903 354.315 274.45 352.839 274.45C352.076 274.45 351.385 274.022 351.044 273.344ZM356.892 280.845C356.892 281.758 356.149 282.505 355.232 282.505H336.775C335.858 282.505 335.115 281.758 335.115 280.845C335.115 279.928 335.858 279.185 336.775 279.185H355.232C356.149 279.185 356.892 279.928 356.892 280.845Z"/><path fill="#2E3F62" d="M378.627 282.503H378.399C377.469 282.503 376.716 281.751 376.716 280.821V271.943H374.449C373.519 271.943 372.766 271.187 372.766 270.258V270.058C372.766 269.129 373.519 268.373 374.449 268.373H376.716V260.232C376.716 259.302 377.469 258.549 378.399 258.549H378.627C379.557 258.549 380.309 259.302 380.309 260.232V280.821C380.309 281.751 379.557 282.503 378.627 282.503ZM360.058 260.608C360.058 259.54 360.923 258.678 361.991 258.678H369.691C370.621 258.678 371.374 259.427 371.374 260.357V260.412C371.374 261.341 370.621 262.094 369.691 262.094H363.827V268.55H369.161C370.087 268.55 370.843 269.302 370.843 270.235C370.843 271.165 370.087 271.918 369.161 271.918H363.827V279.007H370.145C371.075 279.007 371.83 279.76 371.83 280.692C371.83 281.622 371.075 282.375 370.145 282.375H361.991C360.923 282.375 360.058 281.51 360.058 280.442V260.608Z"/><path fill="#2E3F62" d="M390.187 279.187V270.689C390.187 269.775 390.927 269.032 391.846 269.032H392.223C393.14 269.032 393.883 269.775 393.883 270.689V279.187H398.643L399.959 262.197H386.97C386.031 262.197 385.275 261.435 385.275 260.499C385.275 259.563 386.031 258.803 386.97 258.803H402.259C403.085 258.803 403.758 259.473 403.758 260.302V262.197L402.442 279.187H403.98C404.896 279.187 405.639 279.927 405.639 280.847C405.639 281.76 404.896 282.503 403.98 282.503H385.388C384.474 282.503 383.731 281.76 383.731 280.847C383.731 279.927 384.474 279.187 385.388 279.187H390.187Z"/><path fill="#2E3F62" d="M413.608 277.032C413.303 277.032 413.049 277.138 412.836 277.35C412.624 277.56 412.518 277.817 412.518 278.122C412.518 278.428 412.624 278.685 412.836 278.894C413.049 279.107 413.303 279.213 413.608 279.213H424.243C424.545 279.213 424.802 279.107 425.015 278.894C425.224 278.685 425.333 278.428 425.333 278.122C425.333 277.817 425.224 277.56 425.015 277.35C424.802 277.138 424.545 277.032 424.243 277.032H413.608ZM428.115 260.245C428.115 261.113 427.414 261.817 426.546 261.817H413.608V264.121H426.546C427.414 264.121 428.115 264.822 428.115 265.69C428.115 266.555 427.414 267.26 426.546 267.26H411.669C410.601 267.26 409.736 266.391 409.736 265.324V260.611C409.736 259.543 410.601 258.678 411.669 258.678H426.546C427.414 258.678 428.115 259.379 428.115 260.245ZM424.243 273.741C424.867 273.741 425.452 273.857 426.002 274.082C426.549 274.311 427.028 274.62 427.433 275.009C427.839 275.395 428.157 275.855 428.395 276.389C428.63 276.919 428.749 277.498 428.749 278.122C428.749 278.746 428.63 279.325 428.395 279.856C428.157 280.387 427.839 280.85 427.433 281.252C427.028 281.648 426.549 281.953 426.002 282.175C425.452 282.391 424.867 282.503 424.243 282.503H413.608C412.984 282.503 412.399 282.391 411.849 282.175C411.299 281.953 410.823 281.648 410.418 281.252C410.012 280.85 409.691 280.387 409.456 279.856C409.221 279.325 409.102 278.746 409.102 278.122C409.102 277.498 409.221 276.919 409.456 276.389C409.691 275.855 410.012 275.395 410.418 275.009C410.823 274.62 411.299 274.311 411.849 274.082C412.399 273.857 412.984 273.741 413.608 273.741H424.243ZM429.814 270.653C429.814 271.477 429.145 272.146 428.318 272.146H409.53C408.706 272.146 408.041 271.477 408.041 270.653C408.041 269.83 408.706 269.161 409.53 269.161H428.318C429.145 269.161 429.814 269.83 429.814 270.653Z"/><path fill="#2E3F62" d="M441.686 266.803C441.686 266.517 441.621 266.24 441.496 265.98C441.37 265.719 441.203 265.491 440.991 265.298C440.779 265.105 440.528 264.95 440.232 264.841C439.936 264.728 439.627 264.677 439.305 264.677C438.968 264.677 438.656 264.728 438.369 264.841C438.083 264.95 437.829 265.105 437.61 265.298C437.391 265.491 437.218 265.719 437.092 265.98C436.964 266.24 436.903 266.517 436.903 266.803V267.234C436.903 267.54 436.964 267.813 437.092 268.071C437.218 268.325 437.391 268.547 437.61 268.74C437.829 268.933 438.083 269.087 438.369 269.196C438.656 269.306 438.968 269.36 439.305 269.36C439.627 269.36 439.936 269.306 440.232 269.196C440.528 269.087 440.779 268.933 440.991 268.74C441.203 268.547 441.37 268.325 441.496 268.071C441.621 267.813 441.686 267.54 441.686 267.234V266.803ZM453.423 266.552H452.548V276.601C452.548 276.871 452.526 277.141 452.477 277.408L451.834 281.091C451.689 281.905 450.982 282.503 450.155 282.503C449.093 282.503 448.289 281.542 448.479 280.496L449.106 277.006H435.519C434.702 277.006 434.04 276.344 434.04 275.527C434.04 274.706 434.702 274.044 435.519 274.044H448.778V260.434C448.778 259.392 449.621 258.549 450.663 258.549C451.705 258.549 452.548 259.392 452.548 260.434V263.13H453.423C454.366 263.13 455.131 263.899 455.131 264.841C455.131 265.787 454.366 266.552 453.423 266.552ZM441.081 259.434H444.207C445.037 259.434 445.713 260.109 445.713 260.943C445.713 261.776 445.037 262.448 444.207 262.448H442.57C443.4 262.943 444.043 263.577 444.503 264.359C444.812 264.886 444.954 265.507 444.954 266.118V267.704C444.954 268.247 444.838 268.791 444.597 269.28C444.272 269.927 443.818 270.48 443.23 270.943C442.709 271.358 442.094 271.683 441.396 271.918C440.695 272.156 439.965 272.271 439.206 272.271C438.427 272.271 437.703 272.156 437.028 271.918C436.352 271.683 435.764 271.358 435.256 270.943C434.69 270.483 434.255 269.93 433.953 269.286C433.712 268.778 433.609 268.212 433.609 267.649V266.221C433.609 265.378 433.827 264.638 434.268 264.005C434.706 263.374 435.262 262.85 435.938 262.448H434.355C433.525 262.448 432.85 261.776 432.85 260.943C432.85 260.109 433.525 259.434 434.355 259.434H437.533V258.781C437.533 257.8 438.327 257.005 439.305 257.005C440.286 257.005 441.081 257.8 441.081 258.781V259.434Z"/><path fill="#2E3F62" d="M459.968 279.134V271.53C459.968 270.6 460.72 269.841 461.65 269.841H461.952C462.885 269.841 463.638 270.6 463.638 271.53V279.134H465.893V271.53C465.893 270.6 466.645 269.841 467.575 269.841H467.877C468.81 269.841 469.563 270.6 469.563 271.53V279.134H471.564L472.879 262.195H459.89C458.954 262.195 458.195 261.436 458.195 260.5C458.195 259.564 458.954 258.805 459.89 258.805H474.986C475.919 258.805 476.678 259.561 476.678 260.493V262.195L475.362 279.134H476.739C477.669 279.134 478.425 279.886 478.425 280.816C478.425 281.746 477.669 282.505 476.739 282.505H458.334C457.404 282.505 456.651 281.746 456.651 280.816C456.651 279.886 457.404 279.134 458.334 279.134H459.968Z"/><path fill="#ADBFE3" d="M65.6675 238.291V235.538H63.6893V246.555H60.1575V241.045H57.4008V237.513H60.1575V234.756H62.9141V232.855C62.4992 232.791 62.0778 232.746 61.6468 232.746C57.0824 232.746 53.3833 236.448 53.3833 241.016C53.3833 245.58 57.0824 249.279 61.6468 249.279C66.2111 249.279 69.9135 245.58 69.9135 241.016C69.9135 240.057 69.743 239.147 69.4406 238.291H65.6675Z"/><path fill="#ADBFE3" d="M62.9133 235.535H60.9351V237.51H62.9133V235.535Z"/><path fill="#ADBFE3" d="M62.9133 238.293H60.9351V240.268H62.9133V238.293Z"/><path fill="#ADBFE3" d="M58.1787 240.268H60.1569V238.293H58.1787V240.268Z"/><path fill="#ADBFE3" d="M62.9133 241.046H60.9351V243.024H62.9133V241.046Z"/><path fill="#ADBFE3" d="M60.9351 245.781H62.9133V243.802H60.9351V245.781Z"/><path fill="#ADBFE3" d="M68.382 235.52H66.4038V237.498H68.382V235.52Z"/><path fill="#ADBFE3" d="M65.6667 232.753H63.6885V234.728H65.6667V232.753Z"/><path fill="#ADBFE3" d="M68.4206 230H66.4424V231.975H68.4206V230Z"/><path fill="#E74249" d="M26.7622 282.624H9.60806V272.36H26.7622V282.624ZM27.5021 284.834L33.9675 260.378C34.2569 259.275 34.7845 258.294 35.4567 257.445C34.8777 255.634 33.2148 254.318 31.2237 254.318C28.7598 254.318 26.7622 256.325 26.7622 258.802V264.984H9.60806V258.741C9.60806 256.296 7.63629 254.318 5.20453 254.318C2.77599 254.318 0.804199 256.296 0.804199 258.741V285.297C0.804199 287.893 2.89822 290 5.48437 290H31.1368C31.1947 290 31.2494 289.984 31.3073 289.981C28.7019 289.891 26.8234 287.395 27.5021 284.834Z"/><path fill="#00ABA6" d="M94.0468 282.737H75.9952V261.636H94.0468V282.737ZM98.1995 254.379H71.8393C70.0509 254.379 68.523 255.489 67.8926 257.062C68.7611 258.04 69.4044 259.233 69.7228 260.578L75.6189 285.41C76.1753 287.752 74.4094 290 72.0098 290H98.1995C100.551 290 102.461 288.083 102.461 285.719V258.661C102.461 256.293 100.551 254.379 98.1995 254.379Z"/><path fill="#006FB8" d="M47.523 284.835L51.7046 269.019L49.7007 260.578C48.829 256.908 45.5641 254.319 41.8103 254.319C39.2628 254.319 36.9597 255.528 35.4575 257.442C35.5926 257.873 35.6859 258.323 35.6859 258.799V285.43C35.6859 285.645 35.6537 285.851 35.6248 286.063L41.0126 263.991C41.2249 263.116 42.4729 263.135 42.6595 264.017L47.4683 286.732C47.4683 286.732 47.4716 286.739 47.4716 286.745C47.3429 286.134 47.3525 285.488 47.523 284.835Z"/><path fill="#262C3E" d="M35.6863 258.8C35.6863 258.324 35.593 257.874 35.4547 257.443C34.7857 258.295 34.2581 259.273 33.9654 260.376L27.5 284.835C26.8245 287.396 28.6998 289.889 31.3085 289.979C31.5144 289.972 31.717 289.956 31.9164 289.921C31.9872 289.911 32.0515 289.895 32.1223 289.886C33.3993 289.599 34.4608 288.769 35.0848 287.656C35.2102 287.402 35.355 287.155 35.4258 286.872L35.622 286.064C35.6509 285.852 35.6863 285.646 35.6863 285.427V258.8Z"/><path fill="#F4AB4A" d="M67.5776 258.658C67.5776 258.092 67.6934 257.552 67.8928 257.06C65.9532 254.866 62.8813 253.763 59.7033 254.593C56.8309 255.349 54.679 257.767 53.9199 260.637L51.7036 269.019L55.4799 284.916C55.6182 285.501 55.6086 286.074 55.5089 286.62L60.8324 264.844C61.0511 263.953 62.312 263.956 62.5243 264.847L67.6194 286.122C67.6065 285.987 67.5776 285.855 67.5776 285.717V258.658Z"/><path fill="#2C8045" d="M75.6196 285.41L69.7236 260.578C69.4052 259.233 68.7618 258.04 67.8934 257.062C67.6939 257.554 67.5781 258.094 67.5781 258.661V285.719C67.5781 285.857 67.6071 285.989 67.6199 286.124L67.6457 286.237C67.6682 286.497 67.7197 286.748 67.7904 286.989L67.8162 287.066C67.8805 287.272 67.9673 287.472 68.0606 287.658C68.0928 287.719 68.1249 287.777 68.1571 287.838C68.26 288.015 68.3694 288.183 68.4949 288.34C68.5206 288.376 68.5463 288.408 68.5753 288.437C69.3891 289.402 70.6403 290 72.0106 290C74.4102 290 76.1761 287.752 75.6196 285.41Z"/><path fill="#26553D" d="M55.4794 284.917L51.7063 269.02L47.5215 284.836C47.351 285.489 47.3446 286.136 47.4733 286.744C47.5633 287.162 47.7338 287.541 47.9332 287.898C47.9847 287.985 48.0362 288.072 48.0909 288.156C48.316 288.497 48.5798 288.815 48.895 289.072C48.9047 289.082 48.9175 289.089 48.9272 289.095C49.2392 289.346 49.5962 289.536 49.9726 289.684C50.053 289.719 50.1366 289.751 50.2203 289.78C50.6223 289.909 51.0405 289.999 51.4812 289.999C51.9122 289.999 52.3239 289.915 52.7163 289.79C52.7968 289.764 52.8707 289.732 52.9447 289.703C53.7296 289.401 54.4051 288.87 54.8715 288.172C54.8908 288.14 54.9069 288.107 54.9294 288.075C55.1578 287.712 55.3411 287.307 55.4505 286.869L55.5084 286.621C55.6113 286.075 55.6177 285.502 55.4794 284.917Z"/><path fill="#ADBFE3" d="M42.2403 232.442C37.544 232.442 33.7388 236.263 33.7388 240.982C33.7388 245.698 37.544 249.525 42.2403 249.525C46.9333 249.525 50.7418 245.698 50.7418 240.982C50.7418 236.263 46.9333 232.442 42.2403 232.442Z"/><defs><linearGradient id="paint0_linear_2479_1607" x1="155.754" x2="155.754" y1="5" y2="65" gradientUnits="userSpaceOnUse"><stop stop-color="#09C4FF"/><stop offset=".809" stop-color="#257CFF"/></linearGradient></defs></svg>