<svg xmlns="http://www.w3.org/2000/svg" width="364" height="156" fill="none" viewBox="0 0 364 156"><path fill="#21242C" fill-rule="evenodd" d="M203.476 6.29807C213.819 11.7977 221.202 20.1069 223.961 27.3498C224.981 30.0259 223.638 33.0217 220.962 34.0412C218.286 35.0607 215.29 33.7177 214.27 31.0416C212.585 26.6178 207.228 20.0382 198.607 15.4545C190.179 10.973 178.911 8.56472 165.594 11.9948C139.646 18.6786 133.504 41.8661 130.926 58.0678L130.917 58.1293L130.905 58.1904C127.844 74.8467 127.205 98.9072 134.595 117.46C138.248 126.631 143.75 134.186 151.634 139.028C159.473 143.842 170.227 146.318 185.055 144.345C192.798 143.109 201.396 140.589 208.101 134.013C214.394 127.842 219.702 117.412 220.19 99.0329C218.98 98.7588 217.129 98.4876 214.436 98.3409C207.195 97.9464 194.893 98.4975 175.042 101.365C172.208 101.774 169.578 99.8084 169.169 96.9741C168.76 94.1398 170.725 91.5103 173.56 91.1009C193.709 88.1904 206.778 87.5378 215 87.9859C219.08 88.2082 222.23 88.7134 224.542 89.4882C225.69 89.8728 226.877 90.4035 227.899 91.1851C228.886 91.9395 230.21 93.3197 230.537 95.4449L230.597 95.8366V96.2329C230.597 118.324 224.478 132.478 215.362 141.418C206.364 150.242 195.187 153.236 186.619 154.597L186.556 154.607L186.493 154.615C169.799 156.849 156.506 154.19 146.207 147.865C135.94 141.56 129.206 131.955 124.961 121.297C116.564 100.217 117.468 73.98 120.694 56.3773C123.31 39.9738 130.33 10.3692 163.008 1.95225C179.024 -2.1732 192.941 0.696209 203.476 6.29807Z" clip-rule="evenodd"/><path fill="#21242C" fill-rule="evenodd" d="M179.065 25.4921H179.503C186.383 25.4921 192.842 27.7845 197.42 33.8659C201.762 39.6332 203.853 48.0986 204.063 59.2395C204.248 69.0437 201.092 76.1309 196.632 80.9017C192.297 85.5387 186.973 87.7277 183.062 88.2865L182.594 88.3534L182.121 88.3345C168.41 87.786 157.768 74.9215 157.768 56.9153C157.768 36.0416 169.659 27.093 178.633 25.5656L179.065 25.4921ZM179.974 35.8677C176.116 36.7303 168.138 41.3306 168.138 56.9153C168.138 70.8441 175.671 77.3821 182.046 77.9411C183.838 77.5719 186.66 76.3832 189.056 73.82C191.539 71.1634 193.832 66.7463 193.694 59.4351C193.501 49.1819 191.555 43.3173 189.135 40.103C187.031 37.3072 184.142 35.9608 179.974 35.8677Z" clip-rule="evenodd"/><path fill="#21242C" d="M179.099 57.319C179.099 65.3447 175.123 71.8509 170.218 71.8509C165.314 71.8509 161.338 65.3447 161.338 57.319C161.338 49.2933 165.314 42.7872 170.218 42.7872C175.123 42.7872 179.099 49.2933 179.099 57.319Z"/><path fill="#21242C" fill-rule="evenodd" d="M214.463 25.4921H214.898C221.449 25.4921 227.64 27.6652 232.031 33.4668C236.189 38.9594 238.167 46.9885 238.366 57.4753C238.543 66.7615 235.534 73.4984 231.266 78.0393C227.124 82.4451 222.04 84.5256 218.294 85.0577L217.828 85.1239L217.359 85.1052C204.238 84.5833 194.096 72.3404 194.096 55.3007C194.096 35.5436 205.433 27.0205 214.033 25.5648L214.463 25.4921ZM215.37 35.868C211.842 36.6672 204.466 40.8803 204.466 55.3007C204.466 68.2051 211.449 74.178 217.283 74.711C218.925 74.3661 221.511 73.2755 223.709 70.9367C225.993 68.5073 228.126 64.4478 227.998 57.672C227.816 48.0812 225.985 42.6621 223.763 39.7259C221.851 37.2003 219.225 35.9601 215.37 35.868Z" clip-rule="evenodd"/><path fill="#21242C" d="M216.236 54.897C216.236 62.9228 212.26 69.4289 207.355 69.4289C202.451 69.4289 198.475 62.9228 198.475 54.897C198.475 46.8713 202.451 40.3652 207.355 40.3652C212.26 40.3652 216.236 46.8713 216.236 54.897Z"/><path fill="#21242C" fill-rule="evenodd" d="M335.709 6.74809C344.965 12.3597 350.875 20.3555 353.805 26.1215C358.575 35.5065 361.15 43.1435 362.485 51.2048C363.798 59.1343 363.875 67.3083 363.875 77.5C363.875 104.537 359.126 122.101 352.241 133.47C345.314 144.905 336.441 149.708 329.079 151.549C323.763 153.29 314.85 155.036 305.236 154.987C295.554 154.939 284.433 153.067 275.584 146.78C265.446 139.576 259.56 132.722 256.184 122.089C253.005 112.079 252.118 98.8107 250.885 79.3316L250.875 79.166V79C250.875 60.1071 252.6 43.2814 259.453 29.9168C266.505 16.1665 278.636 6.71071 297.852 1.90674C313.652 -2.04322 326.294 1.03991 335.709 6.74809ZM330.266 15.7269C323.173 11.4267 313.398 8.8432 300.398 12.0932C283.614 16.2893 274.245 24.0835 268.797 34.7082C263.167 45.6859 261.386 60.306 261.375 78.8347C262.636 98.7543 263.503 110.444 266.191 118.911C268.69 126.778 272.804 131.924 281.666 138.22C288.017 142.733 296.646 144.444 305.289 144.488C313.875 144.531 321.755 142.923 325.965 141.519L326.172 141.45L326.384 141.399C331.314 140.2 337.836 136.984 343.259 128.03C348.79 118.899 353.375 103.463 353.375 77.5C353.375 67.1917 353.276 59.8657 352.126 52.9201C350.998 46.1064 348.823 39.4934 344.445 30.8785C342.208 26.4778 337.518 20.1236 330.266 15.7269Z" clip-rule="evenodd"/><path fill="#21242C" fill-rule="evenodd" d="M44.7283 3.0831C60.1407 3.37221 76.5407 4.36199 86.9534 5.18713C89.7989 5.41262 91.9225 7.8986 91.6967 10.7397C91.4708 13.5809 88.9811 15.7013 86.1356 15.4758C75.8747 14.6627 59.6891 13.6865 44.5341 13.4023C36.9532 13.2601 29.6933 13.2923 23.5907 13.5964C18.2892 13.8606 14.2056 14.3178 11.5838 14.9192C11.3348 15.6856 11.0788 16.8825 10.8776 18.5769C10.4247 22.3901 10.3634 27.6677 10.5899 33.6918C10.9533 43.356 12.0331 54.3917 13.1186 63.1904C23.484 60.4657 37.2691 58.0128 50.4975 58.0661C65.9834 58.1284 82.9546 61.659 90.9764 75.0086C99.6499 89.4428 102.497 104.881 98.0433 118.576C93.5544 132.377 81.9985 143.342 64.0807 149.393C35.1265 159.171 11.1151 146.813 2.37453 139.014C0.246104 137.115 0.0625485 133.853 1.96454 131.728C3.86654 129.602 7.13384 129.419 9.26226 131.318C15.9449 137.281 36.1684 147.924 60.7687 139.616C76.3225 134.363 84.948 125.423 88.2119 115.388C91.5105 105.246 89.6821 92.9155 82.1126 80.3186C77.14 72.0433 65.48 68.4475 50.4558 68.387C35.8742 68.3282 20.2208 71.6394 10.3117 74.7263C8.86219 75.1778 7.28717 74.9701 6.00481 74.1583C4.72244 73.3465 3.86247 72.0127 3.65323 70.5111C2.32684 60.9923 0.728606 46.5299 0.260407 34.079C0.0275228 27.8859 0.0646474 21.9763 0.612673 17.3616C0.883626 15.0801 1.30894 12.8412 2.02336 10.9609C2.64029 9.33718 3.97901 6.61479 6.95757 5.49953C7.04773 5.46578 7.13882 5.43454 7.23072 5.40586C11.0672 4.20881 16.7958 3.6012 23.0754 3.28827C29.5063 2.96779 37.0255 2.93861 44.7283 3.0831ZM11.8828 14.201C11.8839 14.204 11.8679 14.2356 11.8317 14.2869C11.8637 14.2237 11.8818 14.1981 11.8828 14.201Z" clip-rule="evenodd"/></svg>