<svg xmlns="http://www.w3.org/2000/svg" width="107" height="32" fill="none" viewBox="0 0 107 32"><path fill="#BBBCC2" fill-rule="evenodd" d="M38.7569 8.30397H38.7569V23.4742L38.7569 8.30397ZM59.0648 14.2026C59.0648 12.8872 58.7579 11.8687 58.1764 11.1238C57.6047 10.3967 56.7303 10.0189 55.5114 10.0189C54.2992 10.0189 53.3371 10.4147 52.561 11.2028L52.5606 11.2032C51.7893 11.9825 51.3917 13.1094 51.3917 14.6199V14.8485H51.3831V23.6985H48.8093V14.2026C48.8093 12.8647 48.5019 11.8433 47.9221 11.1124C47.3513 10.3982 46.4686 10.0232 45.2262 10.0232C43.9915 10.0232 43.0261 10.4196 42.2596 11.2062C41.4966 11.9892 41.1021 13.0599 41.1021 14.4453V23.7028H38.5283V8.0754H41.0127V9.84057C41.451 9.24116 41.9807 8.76547 42.6029 8.41751C43.4432 7.94756 44.4395 7.71765 45.5839 7.71765C46.8156 7.71765 47.8717 7.96779 48.7399 8.48032C49.5011 8.92966 50.1064 9.57398 50.5569 10.4049C51.0394 9.70572 51.6877 9.10571 52.4994 8.60362C53.4564 8.01158 54.5812 7.71765 55.8692 7.71765C57.6873 7.71765 59.1234 8.28513 60.1385 9.4484C61.1428 10.5994 61.6386 12.0524 61.6386 13.7852V23.6985H59.0648V14.2026Z" clip-rule="evenodd"/><path fill="#BBBCC2" fill-rule="evenodd" d="M77.2678 23.7028H79.7521V8.0754H77.2678V10.2968C76.0601 8.57276 74.2043 7.71765 71.7468 7.71765C69.4597 7.71765 67.6409 8.51705 66.3231 10.1266C65.0127 11.722 64.3633 13.653 64.3633 15.9061C64.3633 18.1593 65.0127 20.0864 66.3238 21.6694C67.6459 23.2656 69.4642 24.0605 71.7468 24.0605C73.1264 24.0605 74.3203 23.7917 75.3194 23.2428C76.0931 22.8176 76.7425 22.2286 77.2678 21.4796V23.7028ZM64.6133 16.597C64.599 16.3704 64.5919 16.1401 64.5919 15.9061C64.5919 13.7 65.2264 11.8218 66.4998 10.2716C67.1344 9.49646 67.8893 8.91512 68.764 8.52756C67.8893 8.91512 67.1344 9.49646 66.4998 10.2716C65.2264 11.8218 64.5919 13.7 64.5919 15.9061C64.5919 16.1401 64.599 16.3704 64.6133 16.597ZM68.3864 11.7437L68.4405 11.6798V11.6768C69.3709 10.6156 70.5993 10.0785 72.1599 10.0785C73.7523 10.0785 74.9835 10.6289 75.8892 11.7247C76.804 12.8315 77.2678 14.234 77.2678 15.9019C77.2678 17.5686 76.8046 18.9417 75.8892 20.0492C74.9835 21.1449 73.7481 21.6954 72.1599 21.6954C70.5719 21.6954 69.322 21.1448 68.3859 20.0466C67.4419 18.9391 66.9669 17.5629 66.9669 15.9019C66.9669 14.2409 67.4419 12.86 68.3864 11.7437Z" clip-rule="evenodd"/><path fill="#BBBCC2" fill-rule="evenodd" d="M91.6123 10.432V7.96914L90.8836 7.92627H90.8769C89.5954 7.92627 88.5151 8.18341 87.6556 8.71893C87.0813 9.07672 86.6091 9.47404 86.2461 9.91407V8.07107H83.7617V23.6984H86.3355V14.8584C86.3355 13.3709 86.7406 12.2715 87.5177 11.5221C88.3027 10.7652 89.3367 10.3808 90.6384 10.3808C90.8934 10.3808 91.1334 10.3892 91.3634 10.4097L91.6123 10.432ZM86.0175 10.6548V8.29965H83.9903V8.29965H86.0175V10.6548C86.0175 10.6548 86.0175 10.6548 86.0175 10.6548ZM87.3591 11.3575C87.1504 11.5588 86.9678 11.7826 86.8113 12.0291C86.9678 11.7826 87.1504 11.5588 87.3591 11.3575C87.4872 11.234 87.6214 11.12 87.7617 11.0155C87.6214 11.12 87.4872 11.234 87.3591 11.3575ZM90.6384 10.1523C90.8162 10.1523 90.988 10.1563 91.1552 10.1656C91.2227 10.1694 91.2894 10.174 91.3555 10.1796C91.3649 10.1804 91.3743 10.1812 91.3837 10.1821C91.3837 10.1821 91.3837 10.1821 91.3837 10.1821V8.18466L90.8769 8.15484C90.8769 8.15484 90.8769 8.15484 90.8769 8.15484M86.107 14.8584L86.107 23.4699L83.9903 23.4699H86.107V14.8584Z" clip-rule="evenodd"/><path fill="#BBBCC2" fill-rule="evenodd" d="M95.9019 8.07544H93.3281V17.7204C93.3281 19.5585 93.8812 21.0824 95 22.2722C96.1287 23.4725 97.7558 24.0563 99.8471 24.0563C101.938 24.0563 103.566 23.4725 104.694 22.2722C105.813 21.0824 106.366 19.5585 106.366 17.7204V8.07544H103.792V17.5714C103.792 18.9253 103.445 19.945 102.78 20.6659C102.119 21.3818 101.157 21.755 99.8471 21.755C98.5376 21.755 97.5754 21.3818 96.9146 20.6659C96.2491 19.945 95.9019 18.9253 95.9019 17.5714V8.07544ZM93.5781 18.3266C93.5638 18.1289 93.5567 17.9268 93.5567 17.7204V8.30401H93.5567V17.7204C93.5567 17.9268 93.5638 18.1289 93.5781 18.3266Z" clip-rule="evenodd"/><path fill="#BBBCC2" fill-rule="evenodd" d="M18.0079 3.14095L26.5613 7.85866C27.2901 8.25834 27.7877 8.98324 27.9013 9.81393L29.3549 20.468C29.5391 21.8316 28.8691 23.1677 27.6662 23.8221L18.7602 28.6769C16.2251 30.0601 13.165 30.0601 10.626 28.6769L1.71996 23.8221C0.517077 23.1677 -0.156851 21.8316 0.0312223 20.468L1.48487 9.81393C1.5985 8.98715 2.09611 8.26226 2.82489 7.85866L11.3783 3.14095C13.4432 2.00071 15.943 2.00071 18.0079 3.14095ZM12.9926 7.42373L8.44749 9.90797H8.4514C7.6325 10.3547 7.63642 11.5263 8.45532 11.969L13.0318 14.4415C14.0348 14.9862 15.2416 14.9823 16.2408 14.4415L21.0092 11.8554C21.7301 11.4636 21.7341 10.4291 21.0092 10.0334L16.2212 7.42373C15.2142 6.87516 13.9996 6.87516 12.9926 7.42373Z" clip-rule="evenodd"/></svg>