<svg xmlns="http://www.w3.org/2000/svg" width="233" height="70" fill="none" viewBox="0 0 233 70"><path fill="#21242C" d="M128.923 31.0682C128.923 28.1908 128.252 25.9629 126.98 24.3333C125.73 22.7428 123.817 21.9164 121.151 21.9164C118.499 21.9164 116.394 22.7822 114.697 24.5063L114.696 24.5072C113.008 26.2119 112.139 28.6768 112.139 31.9812V32.4812H112.12V51.8406H106.49V31.0682C106.49 28.1416 105.817 25.9074 104.549 24.3085C103.3 22.7461 101.369 21.9257 98.6515 21.9257C95.9508 21.9257 93.8389 22.793 92.1621 24.5137C90.4931 26.2264 89.6302 28.5685 89.6302 31.5992V51.8499H84V17.665H89.4346V21.5263C90.3934 20.2151 91.5521 19.1746 92.9132 18.4134C94.7514 17.3854 96.9307 16.8824 99.4341 16.8824C102.128 16.8824 104.439 17.4296 106.338 18.5508C108.003 19.5337 109.327 20.9432 110.312 22.7608C111.368 21.2313 112.786 19.9188 114.562 18.8205C116.655 17.5254 119.116 16.8824 121.933 16.8824C125.91 16.8824 129.052 18.1238 131.272 20.6685C133.469 23.1863 134.554 26.3647 134.554 30.1552V51.8406H128.923V31.0682Z" clipRule="evenodd" fillRule="evenodd"/><path fill="#21242C" d="M174.176 51.8499V17.665H168.741V22.5244C166.099 18.753 162.04 16.8824 156.664 16.8824C151.661 16.8824 147.683 18.6311 144.8 22.1521C141.933 25.642 140.513 29.8659 140.513 34.7947C140.513 39.7235 141.933 43.9391 144.801 47.4019C147.693 50.8936 151.671 52.6324 156.664 52.6324C159.682 52.6324 162.294 52.0444 164.479 50.8436C166.172 49.9136 167.592 48.6251 168.741 46.9868V51.8499H174.176ZM149.313 25.6895L149.432 25.5497V25.5431C151.467 23.2216 154.154 22.0469 157.568 22.0469C161.051 22.0469 163.744 23.2509 165.726 25.6478C167.727 28.069 168.741 31.137 168.741 34.7854C168.741 38.4314 167.728 41.435 165.726 43.8577C163.744 46.2545 161.042 47.4587 157.568 47.4587C154.094 47.4587 151.36 46.2543 149.312 43.8519C147.247 41.4295 146.208 38.4188 146.208 34.7854C146.208 31.152 147.247 28.1313 149.313 25.6895Z" clipRule="evenodd" fillRule="evenodd"/><path fill="#21242C" d="M200.122 22.8201V17.4327L198.528 17.3389H198.514C195.71 17.3389 193.347 17.9014 191.467 19.0729C190.211 19.8555 189.178 20.7247 188.384 21.6872V17.6557H182.949V51.8405H188.579V32.5029C188.579 29.249 189.466 26.844 191.166 25.2048C192.883 23.5491 195.144 22.7083 197.992 22.7083C198.55 22.7083 199.075 22.7266 199.578 22.7715L200.122 22.8201Z" clipRule="evenodd" fillRule="evenodd"/><path fill="#21242C" d="M209.504 17.665H203.874V38.7635C203.874 42.7842 205.083 46.1177 207.531 48.7205C210 51.3461 213.559 52.6231 218.134 52.6231C222.709 52.6231 226.268 51.3461 228.737 48.7205C231.184 46.1177 232.394 42.7842 232.394 38.7635V17.665H226.764V38.4374C226.764 41.3992 226.004 43.6297 224.549 45.2067C223.103 46.7728 220.998 47.5892 218.134 47.5892C215.269 47.5892 213.165 46.7728 211.719 45.2067C210.263 43.6297 209.504 41.3992 209.504 38.4374V17.665Z" clipRule="evenodd" fillRule="evenodd"/><path fill="url(#paint0_linear_1858_1017)" d="M39.3922 6.87071L58.1028 17.1907C59.697 18.065 60.7855 19.6507 61.0341 21.4679L64.214 44.7736C64.6168 47.7564 63.1511 50.6793 60.5198 52.1107L41.0379 62.7307C35.4924 65.7564 28.7984 65.7564 23.2444 62.7307L3.76241 52.1107C1.13111 50.6793 -0.343111 47.7564 0.0682987 44.7736L3.24815 21.4679C3.49671 19.6593 4.58523 18.0736 6.17945 17.1907L24.89 6.87071C29.407 4.37643 34.8753 4.37643 39.3922 6.87071ZM28.4213 16.2393L18.4789 21.6736H18.4874C16.6961 22.6507 16.7047 25.2136 18.496 26.1821L28.507 31.5907C30.7012 32.7821 33.3411 32.7736 35.5267 31.5907L45.9576 25.9336C47.5347 25.0764 47.5433 22.8136 45.9576 21.9478L35.4838 16.2393C33.2811 15.0393 30.624 15.0393 28.4213 16.2393Z" clipRule="evenodd" fillRule="evenodd"/><defs><linearGradient id="paint0_linear_1858_1017" x1="32.14" x2="32.14" y1="5" y2="65" gradientUnits="userSpaceOnUse"><stop stop-color="#09C4FF"/><stop offset=".809" stop-color="#257CFF"/></linearGradient></defs></svg>