<svg xmlns="http://www.w3.org/2000/svg" width="389" height="156" fill="none" viewBox="0 0 389 156"><path fill="#21242C" fill-rule="evenodd" d="M216.351 6.29807C226.694 11.7977 234.077 20.1069 236.836 27.3498C237.856 30.0259 236.513 33.0217 233.837 34.0412C231.161 35.0607 228.165 33.7177 227.145 31.0416C225.46 26.6178 220.103 20.0382 211.482 15.4545C203.054 10.973 191.786 8.56472 178.469 11.9948C152.521 18.6786 146.379 41.8661 143.801 58.0678L143.792 58.1293L143.78 58.1904C140.719 74.8467 140.08 98.9072 147.47 117.46C151.123 126.631 156.625 134.186 164.509 139.028C172.348 143.842 183.102 146.318 197.93 144.345C205.673 143.109 214.271 140.589 220.976 134.013C227.269 127.842 232.577 117.412 233.065 99.0329C231.855 98.7588 230.004 98.4876 227.311 98.3409C220.07 97.9464 207.768 98.4975 187.917 101.365C185.083 101.774 182.453 99.8084 182.044 96.9741C181.635 94.1398 183.6 91.5103 186.435 91.1009C206.584 88.1904 219.653 87.5378 227.875 87.9859C231.955 88.2082 235.105 88.7134 237.417 89.4882C238.565 89.8728 239.752 90.4035 240.774 91.1851C241.761 91.9395 243.085 93.3197 243.412 95.4449L243.472 95.8366V96.2329C243.472 118.324 237.353 132.478 228.237 141.418C219.239 150.242 208.062 153.236 199.494 154.597L199.431 154.607L199.368 154.615C182.674 156.849 169.381 154.19 159.082 147.865C148.815 141.56 142.081 131.955 137.836 121.297C129.439 100.217 130.343 73.98 133.569 56.3773C136.185 39.9738 143.205 10.3692 175.883 1.95225C191.899 -2.1732 205.816 0.696209 216.351 6.29807Z" clip-rule="evenodd"/><path fill="#21242C" fill-rule="evenodd" d="M191.94 25.4921H192.378C199.258 25.4921 205.717 27.7846 210.295 33.866C214.637 39.6332 216.728 48.0987 216.938 59.2395C217.123 69.0437 213.967 76.1309 209.507 80.9018C205.172 85.5388 199.848 87.7277 195.937 88.2865L195.469 88.3534L194.996 88.3345C181.285 87.7861 170.643 74.9215 170.643 56.9154C170.643 36.0417 182.534 27.093 191.508 25.5656L191.94 25.4921ZM192.849 35.8677C188.991 36.7303 181.013 41.3306 181.013 56.9154C181.013 70.8441 188.546 77.3822 194.921 77.9411C196.713 77.5719 199.535 76.3832 201.931 73.82C204.414 71.1634 206.707 66.7463 206.569 59.4352C206.376 49.1819 204.43 43.3173 202.01 40.1031C199.906 37.3072 197.017 35.9608 192.849 35.8677Z" clip-rule="evenodd"/><path fill="#21242C" d="M191.974 57.319C191.974 65.3447 187.998 71.8509 183.093 71.8509C178.189 71.8509 174.213 65.3447 174.213 57.319C174.213 49.2933 178.189 42.7872 183.093 42.7872C187.998 42.7872 191.974 49.2933 191.974 57.319Z"/><path fill="#21242C" fill-rule="evenodd" d="M227.338 25.4921H227.773C234.324 25.4921 240.515 27.6652 244.906 33.4669C249.064 38.9594 251.042 46.9885 251.241 57.4753C251.418 66.7615 248.409 73.4984 244.141 78.0393C239.999 82.4452 234.915 84.5256 231.169 85.0578L230.703 85.1239L230.234 85.1052C217.113 84.5833 206.971 72.3405 206.971 55.3007C206.971 35.5436 218.308 27.0206 226.908 25.5648L227.338 25.4921ZM228.245 35.868C224.717 36.6673 217.341 40.8804 217.341 55.3007C217.341 68.2051 224.324 74.178 230.158 74.711C231.8 74.3661 234.386 73.2755 236.584 70.9368C238.868 68.5073 241.001 64.4478 240.873 57.672C240.691 48.0812 238.86 42.6621 236.638 39.7259C234.726 37.2003 232.1 35.9602 228.245 35.868Z" clip-rule="evenodd"/><path fill="#21242C" d="M229.111 54.8971C229.111 62.9228 225.135 69.4289 220.23 69.4289C215.326 69.4289 211.35 62.9228 211.35 54.8971C211.35 46.8713 215.326 40.3652 220.23 40.3652C225.135 40.3652 229.111 46.8713 229.111 54.8971Z"/><path fill="#21242C" fill-rule="evenodd" d="M12.1313 10C12.1313 7.10051 9.78075 4.75 6.88125 4.75C3.98176 4.75 1.63125 7.10051 1.63125 10C1.63125 21.936 1.13625 33.6767 0.633804 45.5941L0.6338 45.5942C0.431972 50.3813 0.228942 55.1969 0.0563092 60.0651C-0.160598 66.1819 0.18802 72.2623 2.18657 77.916C4.23578 83.713 7.91237 88.7642 13.824 92.9457C21.4663 98.3512 31.0765 100.099 40.0603 100.492C47.9093 100.835 55.8951 100.152 62.4853 99.5703C62.3155 107.29 62.3994 115.067 63.0086 122.844C63.6382 130.879 64.7486 139.726 67.1912 147.868C68.0243 150.646 70.9511 152.222 73.7283 151.389C76.5056 150.555 78.0815 147.629 77.2484 144.851C75.1244 137.771 74.0851 129.792 73.4766 122.024C72.8703 114.285 72.8104 106.54 73.0077 98.7317C84.4614 97.9559 95.8906 97.6341 107.447 97.6341C110.346 97.6341 112.697 95.2836 112.697 92.3841C112.697 89.4846 110.346 87.1341 107.447 87.1341C96.0645 87.1341 84.7592 87.4411 73.4025 88.1823C73.5584 84.8647 73.7369 81.5316 73.9165 78.179C74.0049 76.5285 74.0936 74.8733 74.1799 73.2128C74.4869 67.3105 75.2801 61.5535 76.1074 55.5496L76.1074 55.5493C76.4364 53.1617 76.7707 50.7351 77.082 48.2448C77.6382 43.7957 78.0775 39.3409 78.5091 34.9654L78.5091 34.9649L78.6468 33.5708C79.1266 28.7206 79.6127 23.9621 80.2618 19.2369C80.6563 16.3644 78.6476 13.7159 75.775 13.3213C72.9025 12.9267 70.254 14.9355 69.8594 17.808C69.1804 22.7517 68.6774 27.6888 68.1978 32.5371L68.0609 33.9229C67.6272 38.3196 67.2013 42.6369 66.6631 46.9425C66.388 49.1432 66.0774 51.3977 65.7616 53.6894C64.9123 59.8538 64.0259 66.2875 63.6941 72.6676C63.608 74.3242 63.5186 75.9869 63.429 77.655L63.4289 77.6563C63.2271 81.4114 63.0238 85.1938 62.8524 88.9967C62.5751 89.021 62.2966 89.0455 62.0169 89.0701C55.2692 89.664 47.8102 90.3204 40.5185 90.0019C32.2987 89.6429 25.0966 88.0579 19.8874 84.3733C15.6996 81.4112 13.3923 78.1113 12.0863 74.4165C10.7295 70.5785 10.3515 66.0265 10.5497 60.4372C10.7169 55.7231 10.9161 50.9971 11.1158 46.2588L11.1159 46.2587C11.6219 34.2546 12.1313 22.1712 12.1313 10Z" clip-rule="evenodd"/><path fill="#21242C" fill-rule="evenodd" d="M288.131 10C288.131 7.10051 285.781 4.75 282.881 4.75C279.982 4.75 277.631 7.10051 277.631 10C277.631 21.936 277.136 33.6767 276.634 45.5941L276.634 45.5942C276.432 50.3813 276.229 55.1969 276.056 60.0651C275.839 66.1819 276.188 72.2623 278.187 77.916C280.236 83.713 283.912 88.7642 289.824 92.9457C297.466 98.3512 307.076 100.099 316.06 100.492C323.909 100.835 331.895 100.152 338.485 99.5703C338.316 107.29 338.399 115.067 339.009 122.844C339.638 130.879 340.749 139.726 343.191 147.868C344.024 150.646 346.951 152.222 349.728 151.389C352.506 150.555 354.082 147.629 353.248 144.851C351.124 137.771 350.085 129.792 349.477 122.024C348.87 114.285 348.81 106.54 349.008 98.7317C360.461 97.9559 371.891 97.6341 383.447 97.6341C386.346 97.6341 388.697 95.2836 388.697 92.3841C388.697 89.4846 386.346 87.1341 383.447 87.1341C372.064 87.1341 360.759 87.4411 349.402 88.1823C349.558 84.8647 349.737 81.5316 349.917 78.179C350.005 76.5285 350.094 74.8733 350.18 73.2128C350.487 67.3105 351.28 61.5535 352.107 55.5496L352.107 55.5493C352.436 53.1617 352.771 50.7351 353.082 48.2448C353.638 43.7957 354.078 39.3409 354.509 34.9654L354.509 34.9649L354.647 33.5708C355.127 28.7206 355.613 23.9621 356.262 19.2369C356.656 16.3644 354.648 13.7159 351.775 13.3213C348.903 12.9267 346.254 14.9355 345.859 17.808C345.18 22.7517 344.677 27.6888 344.198 32.5371L344.061 33.9229C343.627 38.3196 343.201 42.6369 342.663 46.9425C342.388 49.1432 342.077 51.3977 341.762 53.6894C340.912 59.8538 340.026 66.2875 339.694 72.6676C339.608 74.3242 339.519 75.9869 339.429 77.655L339.429 77.6563C339.227 81.4114 339.024 85.1938 338.852 88.9967C338.575 89.021 338.297 89.0455 338.017 89.0701C331.269 89.664 323.81 90.3204 316.518 90.0019C308.299 89.6429 301.097 88.0579 295.887 84.3733C291.7 81.4112 289.392 78.1113 288.086 74.4165C286.73 70.5785 286.352 66.0265 286.55 60.4372C286.717 55.7231 286.916 50.9971 287.116 46.2588L287.116 46.2587C287.622 34.2546 288.131 22.1712 288.131 10Z" clip-rule="evenodd"/></svg>