<svg xmlns="http://www.w3.org/2000/svg" width="319" height="64" fill="none" viewBox="0 0 319 64"><path fill="#2E3F62" d="M80.2261 37.5139H88.1433V35.8091H80.2261V37.5139ZM78.8987 39.7934C78.1868 39.7934 77.61 39.2165 77.61 38.5046V32.2408C77.61 31.5181 78.1954 30.9327 78.9181 30.9327C79.6407 30.9327 80.2261 31.5181 80.2261 32.2408V33.5145H88.1433V32.2408C88.1433 31.5181 88.7287 30.9327 89.4514 30.9327C90.174 30.9327 90.7595 31.5181 90.7595 32.2408V38.5046C90.7595 39.2165 90.1826 39.7934 89.4707 39.7934H78.8987ZM83.046 46.0207V43.5075H77.8137C77.2175 43.5075 76.7329 43.0228 76.7329 42.4267V42.3602C76.7329 41.7619 77.2175 41.2794 77.8137 41.2794H90.7745C91.3728 41.2794 91.8574 41.7619 91.8574 42.3602V42.4267C91.8574 43.0228 91.3728 43.5075 90.7745 43.5075H85.5443V46.0207C85.5443 46.6168 85.0596 47.1036 84.4613 47.1036H84.1268C83.5285 47.1036 83.046 46.6168 83.046 46.0207Z"/><path fill="#2E3F62" d="M107.665 36.5026H106.711V45.8393C106.711 46.4805 106.19 47.0016 105.547 47.0016H95.5366C94.8933 47.0016 94.3722 46.4805 94.3722 45.8393V42.9336C94.3722 42.2903 94.8933 41.7692 95.5366 41.7692H95.586C96.2293 41.7692 96.7504 42.2903 96.7504 42.9336V44.7049H104.279V32.2481C104.279 31.5769 104.824 31.0322 105.495 31.0322C106.166 31.0322 106.711 31.5769 106.711 32.2481V34.1223H107.665C108.322 34.1223 108.856 34.6562 108.856 35.3124C108.856 35.9686 108.322 36.5026 107.665 36.5026ZM99.7182 32.3832L101.809 37.4804C102.141 38.2953 101.543 39.1852 100.664 39.1852C100.164 39.1852 99.7139 38.885 99.5231 38.424L97.8333 34.3582L96.1392 38.424C95.9484 38.885 95.498 39.1852 94.9984 39.1852C94.1213 39.1852 93.5209 38.2953 93.8554 37.4804L95.9462 32.3832C96.2593 31.6176 97.0034 31.118 97.8333 31.118C98.6589 31.118 99.403 31.6176 99.7182 32.3832Z"/><path fill="#2E3F62" d="M119.962 40.3747L116.704 34.0551L113.445 40.3747C113.207 40.8379 112.731 41.1295 112.212 41.1295C111.174 41.1295 110.501 40.0273 110.977 39.1031L114.367 32.5112C114.817 31.6341 115.718 31.0851 116.702 31.0851C117.687 31.0851 118.589 31.6341 119.04 32.5112L122.43 39.1031C122.906 40.0273 122.235 41.1295 121.197 41.1295C120.676 41.1295 120.2 40.8379 119.962 40.3747ZM115.437 44.7922V41.5155C115.437 40.8164 116.003 40.2482 116.702 40.2482C117.403 40.2482 117.97 40.8164 117.97 41.5155V44.7922H122.857C123.466 44.7922 123.961 45.2854 123.961 45.8965C123.961 46.5055 123.466 47.0031 122.857 47.0031H110.55C109.941 47.0031 109.446 46.5055 109.446 45.8965C109.446 45.2854 109.941 44.7922 110.55 44.7922H115.437Z"/><path fill="#2E3F62" d="M131.135 38.5605H134.815V33.4139H131.135V38.5605ZM139.492 39.7335C139.492 40.3447 138.996 40.84 138.385 40.84H127.415C126.803 40.84 126.308 40.3447 126.308 39.7335V39.6692C126.308 39.058 126.803 38.5605 127.415 38.5605H128.551V33.4139H127.415C126.803 33.4139 126.308 32.9165 126.308 32.3074V32.2216C126.308 31.6126 126.803 31.1173 127.415 31.1173H138.385C138.996 31.1173 139.492 31.6126 139.492 32.2216V32.3074C139.492 32.9165 138.996 33.4139 138.385 33.4139H137.397V38.5605H138.385C138.996 38.5605 139.492 39.058 139.492 39.6692V39.7335ZM140.165 45.8965C140.165 46.5055 139.672 47.0031 139.059 47.0031H126.756C126.145 47.0031 125.65 46.5055 125.65 45.8965C125.65 45.2854 126.145 44.79 126.756 44.79H139.059C139.672 44.79 140.165 45.2854 140.165 45.8965Z"/><path fill="#2E3F62" d="M155.593 32.2574C155.593 32.8857 155.083 33.3961 154.455 33.3961H145.279V35.3389H154.455C155.083 35.3389 155.593 35.8471 155.593 36.4776C155.593 37.1059 155.083 37.6163 154.455 37.6163H145.279V39.4218H154.455C155.083 39.4218 155.593 39.9322 155.593 40.5605C155.593 41.191 155.083 41.6992 154.455 41.6992H143.954C143.242 41.6992 142.665 41.1245 142.665 40.4126V32.4053C142.665 31.6934 143.242 31.1187 143.954 31.1187H154.455C155.083 31.1187 155.593 31.6269 155.593 32.2574ZM156.37 45.8958C156.37 46.507 155.874 47.0023 155.263 47.0023H142.959C142.35 47.0023 141.854 46.507 141.854 45.8958C141.854 45.2847 142.35 44.7914 142.959 44.7914H155.263C155.874 44.7914 156.37 45.2847 156.37 45.8958Z"/><path fill="#2E3F62" d="M171.174 47.0023H171.073C170.449 47.0023 169.941 46.4962 169.941 45.8722V32.163C169.941 31.539 170.449 31.0329 171.073 31.0329H171.174C171.8 31.0329 172.304 31.539 172.304 32.163V45.8722C172.304 46.4962 171.8 47.0023 171.174 47.0023ZM160.506 35.86C160.506 36.053 160.54 36.2353 160.609 36.409C160.675 36.5848 160.769 36.7392 160.896 36.8721C161.018 37.0094 161.162 37.1166 161.325 37.196C161.488 37.2731 161.67 37.3117 161.874 37.3117C162.077 37.3117 162.258 37.2731 162.423 37.196C162.586 37.1166 162.729 37.0094 162.852 36.8721C162.976 36.7392 163.072 36.5848 163.139 36.409C163.208 36.2353 163.24 36.053 163.24 35.86V34.7964C163.24 34.6184 163.208 34.4404 163.139 34.2667C163.072 34.0908 162.976 33.9365 162.852 33.8014C162.729 33.6663 162.586 33.5547 162.423 33.4711C162.258 33.3875 162.077 33.3467 161.874 33.3467C161.67 33.3467 161.488 33.3875 161.325 33.4711C161.162 33.5547 161.018 33.6663 160.896 33.8014C160.769 33.9365 160.675 34.0908 160.609 34.2667C160.54 34.4404 160.506 34.6184 160.506 34.7964V35.86ZM165.671 35.9951C165.671 36.5033 165.579 36.9751 165.393 37.4125C165.208 37.8521 164.951 38.2381 164.625 38.5684C164.299 38.9029 163.913 39.1624 163.469 39.3468C163.025 39.5334 162.549 39.6256 162.043 39.6256H161.704C161.198 39.6256 160.722 39.5334 160.278 39.3468C159.834 39.1624 159.448 38.9029 159.122 38.5684C158.796 38.2381 158.539 37.8521 158.355 37.4125C158.168 36.9751 158.076 36.5033 158.076 35.9951V34.6613C158.076 34.1573 158.168 33.6834 158.355 33.2438C158.539 32.8064 158.796 32.4204 159.122 32.088C159.448 31.7556 159.834 31.4983 160.278 31.3117C160.722 31.1273 161.198 31.0329 161.704 31.0329H162.043C162.549 31.0329 163.025 31.1273 163.469 31.3117C163.913 31.4983 164.299 31.7556 164.625 32.088C164.951 32.4204 165.208 32.8064 165.393 33.2438C165.579 33.6834 165.671 34.1573 165.671 34.6613V35.9951ZM164.451 45.8787C164.451 45.2589 164.953 44.755 165.575 44.755H166.617V42.7971H163.139V45.8722C163.139 46.4962 162.635 47.0023 162.009 47.0023H161.908C161.284 47.0023 160.776 46.4962 160.776 45.8722V42.7971H159.022C158.398 42.7971 157.889 42.2911 157.889 41.667C157.889 41.043 158.398 40.5348 159.022 40.5348H166.6V32.163C166.6 31.539 167.106 31.0329 167.732 31.0329H167.831C168.457 31.0329 168.963 31.539 168.963 32.163V45.7114C168.963 46.4233 168.386 47.0023 167.674 47.0023H165.575C164.953 47.0023 164.451 46.4984 164.451 45.8787Z"/><path fill="#2E3F62" d="M178.838 33.3805C178.602 33.3805 178.377 33.4255 178.162 33.5134C177.948 33.6035 177.761 33.7257 177.596 33.878C177.433 34.0302 177.307 34.2104 177.219 34.4162C177.127 34.6264 177.082 34.8494 177.082 35.0853V42.951C177.082 43.1869 177.127 43.4056 177.219 43.6093C177.307 43.8109 177.433 43.9889 177.596 44.1411C177.761 44.2934 177.948 44.4156 178.162 44.5035C178.377 44.5936 178.602 44.6386 178.838 44.6386C179.084 44.6386 179.316 44.5936 179.53 44.5035C179.743 44.4156 179.929 44.2934 180.088 44.1411C180.245 43.9889 180.367 43.8109 180.459 43.6093C180.547 43.4056 180.594 43.1869 180.594 42.951V35.0853C180.594 34.8494 180.547 34.6264 180.459 34.4162C180.367 34.2104 180.245 34.0302 180.088 33.878C179.929 33.7257 179.743 33.6035 179.53 33.5134C179.316 33.4255 179.084 33.3805 178.838 33.3805ZM178.838 31.0324C179.412 31.0324 179.951 31.1374 180.459 31.3455C180.965 31.5535 181.407 31.8408 181.784 32.2075C182.159 32.5721 182.458 33.0031 182.678 33.4984C182.897 33.9938 183.007 34.5213 183.007 35.0853V36.6529H185.809V32.2225C185.809 31.5663 186.343 31.0324 186.999 31.0324C187.656 31.0324 188.19 31.5663 188.19 32.2225V45.8116C188.19 46.4699 187.656 47.0039 186.999 47.0039C186.343 47.0039 185.809 46.4699 185.809 45.8116V38.868H183.007V42.951C183.007 43.5128 182.897 44.0425 182.678 44.5357C182.458 45.0332 182.159 45.4621 181.784 45.8288C181.407 46.1955 180.965 46.4807 180.459 46.6887C179.951 46.8988 179.412 47.0039 178.838 47.0039C178.263 47.0039 177.723 46.8988 177.219 46.6887C176.711 46.4807 176.271 46.1955 175.9 45.8288C175.529 45.4621 175.233 45.0332 175.014 44.5357C174.796 44.0425 174.684 43.5128 174.684 42.951V35.0853C174.684 34.5213 174.796 33.9938 175.014 33.4984C175.233 33.0031 175.529 32.5721 175.9 32.2075C176.271 31.8408 176.711 31.5535 177.219 31.3455C177.723 31.1374 178.263 31.0324 178.838 31.0324Z"/><path fill="#2E3F62" d="M201.54 45.8379V32.1973C201.54 31.554 202.061 31.0329 202.705 31.0329H202.773C203.417 31.0329 203.938 31.554 203.938 32.1973V36.3489L204.787 36.3446C205.419 36.3403 205.932 36.8528 205.932 37.4833C205.932 38.1095 205.426 38.6198 204.8 38.6241L203.938 38.6306V45.8379C203.938 46.4812 203.417 47.0023 202.773 47.0023H202.705C202.061 47.0023 201.54 46.4812 201.54 45.8379ZM193.657 44.637H196.78V33.3961H193.657V44.637ZM191.058 45.7693V32.2831C191.058 31.6376 191.579 31.1187 192.223 31.1187H198.216C198.86 31.1187 199.381 31.6376 199.381 32.2831V45.7693C199.381 46.4126 198.86 46.9337 198.216 46.9337H192.223C191.579 46.9337 191.058 46.4126 191.058 45.7693Z"/><path fill="#2E3F62" d="M219.297 47.0023C218.579 47.0023 217.998 46.4212 217.998 45.7028V32.3324C217.998 31.6141 218.579 31.0329 219.297 31.0329C220.014 31.0329 220.597 31.6141 220.597 32.3324V45.7028C220.597 46.4212 220.014 47.0023 219.297 47.0023ZM211.245 33.4304C211.009 33.4304 210.784 33.4754 210.57 33.5655C210.357 33.6534 210.169 33.7756 210.006 33.9279C209.84 34.0801 209.716 34.2603 209.626 34.4683C209.534 34.6763 209.489 34.8971 209.489 35.1352V42.9001C209.489 43.136 209.534 43.359 209.626 43.5648C209.716 43.775 209.84 43.953 210.006 44.1052C210.169 44.2596 210.357 44.3776 210.57 44.4676C210.784 44.5577 211.009 44.6049 211.245 44.6049H212.006C212.24 44.6049 212.461 44.5577 212.663 44.4676C212.866 44.3776 213.042 44.2553 213.194 44.0988C213.347 43.9401 213.465 43.7557 213.55 43.5498C213.634 43.3418 213.677 43.1252 213.677 42.9001V35.1352C213.677 34.91 213.634 34.6956 213.55 34.4919C213.465 34.2903 213.351 34.1102 213.203 33.9536C213.057 33.7949 212.883 33.6684 212.68 33.574C212.478 33.4775 212.264 33.4304 212.039 33.4304H211.245ZM212.139 31.0329C212.693 31.0329 213.207 31.1423 213.685 31.361C214.164 31.5819 214.58 31.88 214.933 32.2574C215.289 32.6348 215.566 33.0701 215.768 33.5655C215.971 34.0608 216.072 34.5841 216.072 35.1352V42.9001C216.072 43.4512 215.969 43.9744 215.761 44.4676C215.553 44.9651 215.268 45.4004 214.91 45.7779C214.547 46.1531 214.123 46.4512 213.634 46.6721C213.145 46.8908 212.624 47.0023 212.073 47.0023H211.245C210.673 47.0023 210.132 46.893 209.626 46.6807C209.118 46.4662 208.68 46.1746 208.307 45.8015C207.938 45.4326 207.642 44.9973 207.422 44.5041C207.203 44.0087 207.094 43.4726 207.094 42.9001V35.1352C207.094 34.5605 207.203 34.0265 207.422 33.5312C207.642 33.0358 207.938 32.6026 208.307 32.2295C208.68 31.8585 209.118 31.569 209.626 31.3524C210.132 31.1401 210.673 31.0329 211.245 31.0329H212.139Z"/><path fill="#2E3F62" d="M233.493 40.8958L230.133 34.2052L226.773 40.8958C226.545 41.3483 226.084 41.6335 225.578 41.6335C224.592 41.6335 223.944 40.602 224.373 39.7142L227.834 32.5283C228.259 31.647 229.153 31.0851 230.133 31.0851C231.113 31.0851 232.007 31.647 232.432 32.5283L235.895 39.7142C236.322 40.602 235.674 41.6335 234.69 41.6335C234.182 41.6335 233.721 41.3483 233.493 40.8958ZM237.392 45.8965C237.392 46.5055 236.897 47.0031 236.285 47.0031H223.981C223.37 47.0031 222.874 46.5055 222.874 45.8965C222.874 45.2854 223.37 44.79 223.981 44.79H236.285C236.897 44.79 237.392 45.2854 237.392 45.8965Z"/><path fill="#2E3F62" d="M251.882 47.0023H251.73C251.11 47.0023 250.608 46.5005 250.608 45.8808V39.9622H249.096C248.477 39.9622 247.975 39.4583 247.975 38.8386V38.7056C247.975 38.0859 248.477 37.5819 249.096 37.5819H250.608V32.1545C250.608 31.5347 251.11 31.0329 251.73 31.0329H251.882C252.502 31.0329 253.003 31.5347 253.003 32.1545V45.8808C253.003 46.5005 252.502 47.0023 251.882 47.0023ZM239.502 32.4053C239.502 31.6934 240.079 31.1187 240.791 31.1187H245.925C246.544 31.1187 247.046 31.6184 247.046 32.2381V32.2745C247.046 32.8943 246.544 33.3961 245.925 33.3961H242.015V37.6999H245.571C246.188 37.6999 246.692 38.2017 246.692 38.8236C246.692 39.4433 246.188 39.9451 245.571 39.9451H242.015V44.6714H246.227C246.847 44.6714 247.351 45.1731 247.351 45.795C247.351 46.4148 246.847 46.9165 246.227 46.9165H240.791C240.079 46.9165 239.502 46.3397 239.502 45.6278V32.4053Z"/><path fill="#2E3F62" d="M259.588 44.7914V39.1259C259.588 38.5169 260.082 38.0215 260.695 38.0215H260.946C261.557 38.0215 262.052 38.5169 262.052 39.1259V44.7914H265.226L266.103 33.4647H257.444C256.818 33.4647 256.314 32.9565 256.314 32.3324C256.314 31.7084 256.818 31.2023 257.444 31.2023H267.636C268.188 31.2023 268.636 31.6484 268.636 32.2016V33.4647L267.759 44.7914H268.784C269.395 44.7914 269.89 45.2847 269.89 45.898C269.89 46.507 269.395 47.0023 268.784 47.0023H256.389C255.78 47.0023 255.285 46.507 255.285 45.898C255.285 45.2847 255.78 44.7914 256.389 44.7914H259.588Z"/><path fill="#2E3F62" d="M275.203 43.3547C274.999 43.3547 274.83 43.4255 274.688 43.567C274.547 43.7064 274.476 43.8779 274.476 44.0816C274.476 44.2854 274.547 44.4569 274.688 44.5963C274.83 44.7378 274.999 44.8086 275.203 44.8086H282.292C282.494 44.8086 282.665 44.7378 282.807 44.5963C282.946 44.4569 283.019 44.2854 283.019 44.0816C283.019 43.8779 282.946 43.7064 282.807 43.567C282.665 43.4255 282.494 43.3547 282.292 43.3547H275.203ZM284.874 32.163C284.874 32.742 284.407 33.2116 283.828 33.2116H275.203V34.747H283.828C284.407 34.747 284.874 35.2145 284.874 35.7935C284.874 36.3704 284.407 36.84 283.828 36.84H273.91C273.198 36.84 272.621 36.261 272.621 35.549V32.4075C272.621 31.6955 273.198 31.1187 273.91 31.1187H283.828C284.407 31.1187 284.874 31.5862 284.874 32.163ZM282.292 41.161C282.708 41.161 283.099 41.2382 283.465 41.3883C283.83 41.5405 284.149 41.7464 284.42 42.0059C284.69 42.2632 284.902 42.5698 285.061 42.9258C285.217 43.2796 285.297 43.6656 285.297 44.0816C285.297 44.4977 285.217 44.8836 285.061 45.2375C284.902 45.5913 284.69 45.9001 284.42 46.1681C284.149 46.4319 283.83 46.6356 283.465 46.7836C283.099 46.9273 282.708 47.0023 282.292 47.0023H275.203C274.787 47.0023 274.397 46.9273 274.03 46.7836C273.663 46.6356 273.346 46.4319 273.076 46.1681C272.805 45.9001 272.591 45.5913 272.435 45.2375C272.278 44.8836 272.199 44.4977 272.199 44.0816C272.199 43.6656 272.278 43.2796 272.435 42.9258C272.591 42.5698 272.805 42.2632 273.076 42.0059C273.346 41.7464 273.663 41.5405 274.03 41.3883C274.397 41.2382 274.787 41.161 275.203 41.161H282.292ZM286.006 39.1023C286.006 39.6513 285.56 40.0973 285.009 40.0973H272.484C271.935 40.0973 271.491 39.6513 271.491 39.1023C271.491 38.5534 271.935 38.1073 272.484 38.1073H285.009C285.56 38.1073 286.006 38.5534 286.006 39.1023Z"/><path fill="#2E3F62" d="M293.921 36.5355C293.921 36.3446 293.878 36.1602 293.794 35.9865C293.711 35.8128 293.599 35.6606 293.458 35.5319C293.316 35.4032 293.149 35.3003 292.952 35.2274C292.754 35.1523 292.549 35.118 292.334 35.118C292.109 35.118 291.901 35.1523 291.71 35.2274C291.519 35.3003 291.35 35.4032 291.204 35.5319C291.058 35.6606 290.942 35.8128 290.859 35.9865C290.773 36.1602 290.732 36.3446 290.732 36.5355V36.8228C290.732 37.0265 290.773 37.2088 290.859 37.3804C290.942 37.5498 291.058 37.6977 291.204 37.8264C291.35 37.9551 291.519 38.058 291.71 38.1309C291.901 38.2038 292.109 38.2403 292.334 38.2403C292.549 38.2403 292.754 38.2038 292.952 38.1309C293.149 38.058 293.316 37.9551 293.458 37.8264C293.599 37.6977 293.711 37.5498 293.794 37.3804C293.878 37.2088 293.921 37.0265 293.921 36.8228V36.5355ZM301.746 36.3682H301.163V43.0673C301.163 43.2475 301.148 43.4276 301.115 43.6056L300.687 46.0609C300.59 46.6035 300.118 47.0023 299.567 47.0023C298.86 47.0023 298.323 46.3611 298.45 45.6642L298.868 43.3375H289.81C289.265 43.3375 288.824 42.8958 288.824 42.3511C288.824 41.8043 289.265 41.3625 289.81 41.3625H298.649V32.2895C298.649 31.5948 299.211 31.0329 299.906 31.0329C300.601 31.0329 301.163 31.5948 301.163 32.2895V34.0866H301.746C302.374 34.0866 302.885 34.5991 302.885 35.2274C302.885 35.8578 302.374 36.3682 301.746 36.3682ZM293.518 31.6226H295.602C296.155 31.6226 296.606 32.073 296.606 32.6284C296.606 33.1838 296.155 33.6319 295.602 33.6319H294.511C295.064 33.9622 295.493 34.3846 295.799 34.9057C296.005 35.2574 296.1 35.6713 296.1 36.0787V37.1359C296.1 37.4983 296.022 37.8607 295.862 38.1867C295.645 38.6177 295.343 38.9865 294.95 39.2953C294.603 39.572 294.193 39.7885 293.728 39.9451C293.26 40.1038 292.774 40.181 292.268 40.181C291.749 40.181 291.266 40.1038 290.816 39.9451C290.366 39.7885 289.973 39.572 289.634 39.2953C289.257 38.9887 288.967 38.6198 288.766 38.191C288.605 37.8521 288.536 37.4747 288.536 37.0995V36.1473C288.536 35.5855 288.682 35.0923 288.976 34.6698C289.268 34.2495 289.639 33.9 290.089 33.6319H289.034C288.481 33.6319 288.03 33.1838 288.03 32.6284C288.03 32.073 288.481 31.6226 289.034 31.6226H291.153V31.1873C291.153 30.5333 291.682 30.0036 292.334 30.0036C292.988 30.0036 293.518 30.5333 293.518 31.1873V31.6226Z"/><path fill="#2E3F62" d="M306.109 44.7557V39.6863C306.109 39.0666 306.611 38.5605 307.231 38.5605H307.432C308.054 38.5605 308.556 39.0666 308.556 39.6863V44.7557H310.059V39.6863C310.059 39.0666 310.561 38.5605 311.181 38.5605H311.382C312.004 38.5605 312.506 39.0666 312.506 39.6863V44.7557H313.84L314.717 33.4633H306.058C305.434 33.4633 304.928 32.9572 304.928 32.3332C304.928 31.7091 305.434 31.2031 306.058 31.2031H316.121C316.743 31.2031 317.249 31.707 317.249 32.3289V33.4633L316.372 44.7557H317.29C317.91 44.7557 318.414 45.2575 318.414 45.8772C318.414 46.497 317.91 47.0031 317.29 47.0031H305.02C304.4 47.0031 303.898 46.497 303.898 45.8772C303.898 45.2575 304.4 44.7557 305.02 44.7557H306.109Z"/><path fill="#ADBFE3" d="M43.2425 17.5275V15.6919H41.9237V23.0365H39.5691V19.3631H37.7313V17.0085H39.5691V15.1708H41.4069V13.9034C41.1302 13.8606 40.8493 13.8305 40.562 13.8305C37.519 13.8305 35.053 16.2987 35.053 19.3438C35.053 22.3867 37.519 24.8528 40.562 24.8528C43.6049 24.8528 46.0731 22.3867 46.0731 19.3438C46.0731 18.7048 45.9594 18.0979 45.7579 17.5275H43.2425Z"/><path fill="#ADBFE3" d="M41.4062 15.6902H40.0874V17.0068H41.4062V15.6902Z"/><path fill="#ADBFE3" d="M41.4062 17.5286H40.0874V18.8452H41.4062V17.5286Z"/><path fill="#ADBFE3" d="M38.2498 18.8452H39.5686V17.5286H38.2498V18.8452Z"/><path fill="#ADBFE3" d="M41.4062 19.364H40.0874V20.6829H41.4062V19.364Z"/><path fill="#ADBFE3" d="M40.0874 22.5204H41.4062V21.2016H40.0874V22.5204Z"/><path fill="#ADBFE3" d="M45.0517 15.6801H43.7329V16.9989H45.0517V15.6801Z"/><path fill="#ADBFE3" d="M43.2414 13.8353H41.9226V15.152H43.2414V13.8353Z"/><path fill="#ADBFE3" d="M45.0776 12H43.7588V13.3167H45.0776V12Z"/><path fill="#E74249" d="M17.3054 47.0829H5.86924V40.2401H17.3054V47.0829ZM17.7986 48.5561L22.1088 32.2522C22.3018 31.5166 22.6535 30.8626 23.1017 30.2965C22.7157 29.0892 21.607 28.2121 20.2796 28.2121C18.637 28.2121 17.3054 29.5502 17.3054 31.2014V35.3229H5.86924V31.1607C5.86924 29.5309 4.55473 28.2121 2.93356 28.2121C1.31453 28.2121 0 29.5309 0 31.1607V48.8649C0 50.5954 1.39601 52 3.12011 52H20.2218C20.2603 52 20.2968 51.9893 20.3354 51.9871C18.5984 51.9271 17.3461 50.263 17.7986 48.5561Z"/><path fill="#00ABA6" d="M62.1617 47.1579H50.1273V33.0906H62.1617V47.1579ZM64.9302 28.2528H47.3568C46.1645 28.2528 45.1459 28.9927 44.7256 30.0413C45.3046 30.6932 45.7335 31.4887 45.9458 32.3851L49.8765 48.9399C50.2474 50.5011 49.0701 52 47.4704 52H64.9302C66.4977 52 67.7715 50.7219 67.7715 49.1458V31.1071C67.7715 29.5288 66.4977 28.2528 64.9302 28.2528Z"/><path fill="#006FB8" d="M31.1457 48.5564L33.9334 38.0124L32.5975 32.3855C32.0163 29.9387 29.8398 28.2124 27.3373 28.2124C25.6389 28.2124 24.1035 29.0187 23.1021 30.2947C23.1921 30.582 23.2543 30.8822 23.2543 31.1996V48.9531C23.2543 49.0968 23.2329 49.2341 23.2136 49.3756L26.8054 34.6607C26.947 34.0774 27.779 34.0903 27.9034 34.6778L31.1093 49.8216C31.1093 49.8216 31.1114 49.8259 31.1114 49.8302C31.0256 49.4228 31.0321 48.9917 31.1457 48.5564Z"/><path fill="#262C3E" d="M23.2546 31.2001C23.2546 30.8827 23.1924 30.5825 23.1002 30.2952C22.6541 30.8634 22.3025 31.5153 22.1073 32.2509L17.7971 48.5569C17.3467 50.2639 18.5969 51.9258 20.336 51.9858C20.4733 51.9816 20.6084 51.9708 20.7413 51.9472C20.7885 51.9408 20.8314 51.9301 20.8786 51.9237C21.7299 51.7328 22.4376 51.1795 22.8536 50.4376C22.9372 50.2682 23.0337 50.1031 23.0809 49.9143L23.2117 49.3761C23.231 49.2346 23.2546 49.0973 23.2546 48.9515V31.2001Z"/><path fill="#F4AB4A" d="M44.5157 31.1056C44.5157 30.7282 44.5929 30.368 44.7259 30.0399C43.4328 28.5774 41.3849 27.8418 39.2662 28.3951C37.3513 28.899 35.9167 30.5116 35.4106 32.4244L33.9331 38.0128L36.4506 48.6104C36.5428 49.0007 36.5364 49.3824 36.4699 49.7469L40.0189 35.2293C40.1647 34.6353 41.0054 34.6375 41.1469 35.2315L44.5436 49.4146C44.535 49.3245 44.5157 49.2366 44.5157 49.1444V31.1056Z"/><path fill="#2C8045" d="M49.8769 48.9399L45.9462 32.3851C45.7339 31.4888 45.305 30.6932 44.726 30.0413C44.5931 30.3694 44.5159 30.7296 44.5159 31.1071V49.1458C44.5159 49.238 44.5352 49.3259 44.5437 49.416L44.5609 49.491C44.5759 49.6647 44.6102 49.832 44.6574 49.9928L44.6746 50.0443C44.7174 50.1815 44.7753 50.3145 44.8375 50.4389C44.859 50.4796 44.8804 50.5182 44.9019 50.559C44.9705 50.6769 45.0434 50.7884 45.127 50.8935C45.1442 50.9171 45.1613 50.9385 45.1806 50.9578C45.7232 51.6011 46.5573 52 47.4709 52C49.0706 52 50.2479 50.5011 49.8769 48.9399Z"/><path fill="#26553D" d="M36.45 48.6111L33.9346 38.0135L31.1447 48.5575C31.0311 48.9928 31.0268 49.4238 31.1126 49.8291C31.1726 50.1079 31.2862 50.3609 31.4192 50.599C31.4535 50.6569 31.4878 50.7148 31.5243 50.7705C31.6744 50.9978 31.8502 51.2101 32.0604 51.3817C32.0668 51.3881 32.0754 51.3924 32.0818 51.3967C32.2898 51.564 32.5279 51.6905 32.7788 51.7891C32.8324 51.8127 32.8881 51.8341 32.9439 51.8534C33.2119 51.9392 33.4907 51.9993 33.7845 51.9993C34.0718 51.9993 34.3463 51.9435 34.6079 51.8599C34.6615 51.8427 34.7109 51.8213 34.7602 51.802C35.2834 51.6004 35.7337 51.2466 36.0447 50.7812C36.0576 50.7598 36.0683 50.7384 36.0833 50.7169C36.2355 50.4746 36.3578 50.2044 36.4307 49.9128L36.4693 49.7476C36.5379 49.3831 36.5422 49.0014 36.45 48.6111Z"/><path fill="#ADBFE3" d="M27.624 13.628C24.4931 13.628 21.9563 16.1756 21.9563 19.3214C21.9563 22.4651 24.4931 25.017 27.624 25.017C30.7527 25.017 33.2916 22.4651 33.2916 19.3214C33.2916 16.1756 30.7527 13.628 27.624 13.628Z"/></svg>