<svg width="480" height="139" viewBox="0 0 480 139" fill="none" xmlns="http://www.w3.org/2000/svg">
<path d="M6.93772 119.871H22.6587V116.489H6.93772V119.871ZM4.30062 124.396C2.88683 124.396 1.73973 123.253 1.73973 121.839V109.398C1.73973 107.964 2.90377 106.8 4.33873 106.8C5.77791 106.8 6.93772 107.964 6.93772 109.398V111.926H22.6629V109.394C22.6629 107.963 23.827 106.8 25.2619 106.8C26.6927 106.8 27.8567 107.963 27.8567 109.394V121.839C27.8567 123.253 26.7096 124.396 25.2958 124.396H4.30062ZM12.5379 136.764V131.774H2.14609C0.960884 131.774 0 130.813 0 129.627V129.496C0 128.311 0.960884 127.35 2.14609 127.35H27.8906C29.0716 127.35 30.0324 128.311 30.0324 129.496V129.627C30.0324 130.813 29.0716 131.774 27.8906 131.774H17.4988V136.764C17.4988 137.949 16.5337 138.914 15.3527 138.914H14.6839C13.4987 138.914 12.5379 137.949 12.5379 136.764Z" fill="#2E3F62"/>
<path d="M61.4337 117.862H59.5373V136.402C59.5373 137.68 58.5003 138.717 57.2219 138.717H37.3442C36.0659 138.717 35.0331 137.68 35.0331 136.402V130.637C35.0331 129.358 36.0659 128.321 37.3442 128.321H37.4458C38.7199 128.321 39.757 129.358 39.757 130.637V134.154H54.7118V109.413C54.7118 108.08 55.7912 107 57.1246 107C58.4579 107 59.5373 108.08 59.5373 109.413V113.134H61.4337C62.7374 113.134 63.7999 114.192 63.7999 115.496C63.7999 116.804 62.7374 117.862 61.4337 117.862ZM45.6492 109.68L49.8017 119.805C50.462 121.422 49.2768 123.191 47.5286 123.191C46.5381 123.191 45.645 122.594 45.264 121.68L41.9031 113.604L38.5422 121.68C38.1612 122.594 37.2681 123.191 36.2776 123.191C34.5336 123.191 33.3442 121.422 34.0087 119.805L38.157 109.68C38.7792 108.16 40.2607 107.17 41.9031 107.17C43.5454 107.17 45.027 108.16 45.6492 109.68Z" fill="#2E3F62"/>
<path d="M85.8541 125.554L79.3862 113L72.9141 125.554C72.4401 126.473 71.4919 127.048 70.4633 127.048H70.4591C68.3934 127.048 67.0643 124.864 68.0082 123.027L74.7428 109.935C75.6359 108.191 77.4306 107.103 79.382 107.103C81.3376 107.103 83.1281 108.191 84.0255 109.935L90.76 123.027C91.704 124.864 90.3706 127.048 88.305 127.048C87.2721 127.048 86.3282 126.473 85.8541 125.554ZM76.8677 134.321V127.819C76.8677 126.43 77.9979 125.3 79.382 125.3C80.7704 125.3 81.8964 126.43 81.8964 127.819V134.321H91.6024C92.8172 134.321 93.7993 135.307 93.7993 136.517C93.7993 137.732 92.8172 138.714 91.6024 138.714H67.1659C65.951 138.714 64.969 137.732 64.969 136.517C64.969 135.307 65.951 134.321 67.1659 134.321H76.8677Z" fill="#2E3F62"/>
<path d="M108.049 121.954H115.355V111.727H108.049V121.954ZM124.642 124.282C124.642 125.492 123.66 126.479 122.445 126.479H100.654C99.4396 126.479 98.4576 125.492 98.4576 124.282V124.151C98.4576 122.94 99.4396 121.954 100.654 121.954H102.919V111.727H100.654C99.4396 111.727 98.4576 110.745 98.4576 109.534V109.365C98.4576 108.15 99.4396 107.168 100.654 107.168H122.445C123.66 107.168 124.642 108.15 124.642 109.365V109.534C124.642 110.745 123.66 111.727 122.445 111.727H120.486V121.954H122.445C123.66 121.954 124.642 122.94 124.642 124.151V124.282ZM125.98 136.519C125.98 137.734 124.998 138.716 123.783 138.716H99.3465C98.1359 138.716 97.1497 137.734 97.1497 136.519C97.1497 135.304 98.1359 134.322 99.3465 134.322H123.783C124.998 134.322 125.98 135.304 125.98 136.519Z" fill="#2E3F62"/>
<path d="M156.625 109.428C156.625 110.681 155.609 111.693 154.361 111.693H136.138V115.545H154.361C155.609 115.545 156.625 116.561 156.625 117.81C156.625 119.058 155.609 120.074 154.361 120.074H136.138V123.659H154.361C155.609 123.659 156.625 124.675 156.625 125.92C156.625 127.173 155.609 128.189 154.361 128.189H133.505C132.091 128.189 130.944 127.042 130.944 125.628V109.725C130.944 108.311 132.091 107.168 133.505 107.168H154.361C155.609 107.168 156.625 108.18 156.625 109.428ZM158.166 136.515C158.166 137.734 157.18 138.716 155.969 138.716H131.533C130.318 138.716 129.336 137.734 129.336 136.515C129.336 135.304 130.318 134.322 131.533 134.322H155.969C157.18 134.322 158.166 135.304 158.166 136.515Z" fill="#2E3F62"/>
<path d="M187.568 138.716H187.37C186.129 138.716 185.122 137.708 185.122 136.468V109.246C185.122 108.002 186.129 106.999 187.37 106.999H187.568C188.809 106.999 189.816 108.002 189.816 109.246V136.468C189.816 137.708 188.809 138.716 187.568 138.716ZM166.383 116.586C166.383 116.967 166.451 117.331 166.582 117.674C166.717 118.021 166.908 118.334 167.153 118.597C167.399 118.868 167.682 119.079 168.008 119.236C168.334 119.393 168.694 119.469 169.096 119.469C169.498 119.469 169.862 119.393 170.188 119.236C170.51 119.079 170.793 118.868 171.043 118.597C171.289 118.334 171.475 118.021 171.61 117.674C171.746 117.331 171.814 116.967 171.814 116.586V114.474C171.814 114.114 171.746 113.763 171.61 113.416C171.475 113.073 171.289 112.764 171.043 112.502C170.793 112.226 170.51 112.011 170.188 111.841C169.862 111.676 169.498 111.596 169.096 111.596C168.694 111.596 168.334 111.676 168.008 111.841C167.682 112.011 167.399 112.226 167.153 112.502C166.908 112.764 166.717 113.073 166.582 113.416C166.451 113.763 166.383 114.114 166.383 114.474V116.586ZM176.639 116.857C176.639 117.86 176.457 118.8 176.089 119.672C175.716 120.544 175.213 121.31 174.561 121.966C173.913 122.627 173.151 123.143 172.267 123.511C171.382 123.88 170.438 124.062 169.43 124.062H168.762C167.754 124.062 166.81 123.88 165.93 123.511C165.045 123.143 164.283 122.627 163.631 121.966C162.984 121.31 162.476 120.544 162.108 119.672C161.735 118.8 161.553 117.86 161.553 116.857V114.207C161.553 113.204 161.735 112.265 162.108 111.393C162.476 110.521 162.984 109.754 163.631 109.094C164.283 108.438 165.045 107.922 165.93 107.553C166.81 107.185 167.754 106.999 168.762 106.999H169.43C170.438 106.999 171.382 107.185 172.267 107.553C173.151 107.922 173.913 108.438 174.561 109.094C175.213 109.754 175.716 110.521 176.089 111.393C176.457 112.265 176.639 113.204 176.639 114.207V116.857ZM174.218 136.485C174.218 135.253 175.217 134.254 176.449 134.254H178.519V130.364H171.61V136.468C171.61 137.708 170.607 138.716 169.367 138.716H169.164C167.924 138.716 166.92 137.708 166.92 136.468V130.364H163.432C162.192 130.364 161.185 129.361 161.185 128.117C161.185 126.876 162.192 125.873 163.432 125.873H178.485V109.246C178.485 108.002 179.492 106.999 180.732 106.999H180.931C182.172 106.999 183.175 108.002 183.175 109.246V136.155C183.175 137.569 182.032 138.716 180.614 138.716H176.449C175.217 138.716 174.218 137.717 174.218 136.485Z" fill="#2E3F62"/>
<path d="M202.789 111.661C202.319 111.661 201.875 111.75 201.447 111.923C201.024 112.105 200.652 112.346 200.326 112.647C200 112.952 199.75 113.307 199.572 113.718C199.39 114.133 199.301 114.573 199.301 115.047V130.666C199.301 131.136 199.39 131.572 199.572 131.979C199.75 132.381 200 132.732 200.326 133.033C200.652 133.333 201.024 133.574 201.447 133.752C201.875 133.934 202.319 134.019 202.789 134.019C203.28 134.019 203.737 133.934 204.165 133.752C204.588 133.574 204.956 133.333 205.27 133.033C205.583 132.732 205.828 132.381 206.01 131.979C206.188 131.572 206.277 131.136 206.277 130.666V115.047C206.277 114.573 206.188 114.133 206.01 113.718C205.828 113.307 205.583 112.952 205.27 112.647C204.956 112.346 204.588 112.105 204.165 111.923C203.737 111.75 203.28 111.661 202.789 111.661ZM202.789 106.996C203.932 106.996 204.999 107.208 206.01 107.618C207.014 108.033 207.894 108.6 208.639 109.328C209.388 110.056 209.981 110.912 210.417 111.898C210.853 112.88 211.073 113.93 211.073 115.047V118.162H216.635V109.362C216.635 108.054 217.693 106.996 218.997 106.996C220.305 106.996 221.363 108.054 221.363 109.362V136.351C221.363 137.659 220.305 138.717 218.997 138.717C217.693 138.717 216.635 137.659 216.635 136.351V122.556H211.073V130.666C211.073 131.784 210.853 132.834 210.417 133.816C209.981 134.802 209.388 135.657 208.639 136.385C207.894 137.113 207.014 137.676 206.01 138.095C204.999 138.506 203.932 138.717 202.789 138.717C201.65 138.717 200.58 138.506 199.572 138.095C198.565 137.676 197.693 137.113 196.956 136.385C196.22 135.657 195.631 134.802 195.195 133.816C194.764 132.834 194.543 131.784 194.543 130.666V115.047C194.543 113.93 194.764 112.88 195.195 111.898C195.631 110.912 196.22 110.056 196.956 109.328C197.693 108.6 198.565 108.033 199.572 107.618C200.58 107.208 201.65 106.996 202.789 106.996Z" fill="#2E3F62"/>
<path d="M247.878 136.402V109.316C247.878 108.037 248.915 107 250.189 107H250.325C251.603 107 252.64 108.037 252.64 109.316V117.561L254.325 117.549C255.582 117.544 256.602 118.556 256.602 119.813C256.602 121.058 255.595 122.069 254.35 122.074L252.64 122.086V136.402C252.64 137.68 251.603 138.717 250.325 138.717H250.189C248.915 138.717 247.878 137.68 247.878 136.402ZM232.225 134.023H238.426V111.699H232.225V134.023ZM227.061 136.271V109.481C227.061 108.202 228.094 107.17 229.372 107.17H241.275C242.553 107.17 243.586 108.202 243.586 109.481V136.271C243.586 137.549 242.553 138.582 241.275 138.582H229.372C228.094 138.582 227.061 137.549 227.061 136.271Z" fill="#2E3F62"/>
<path d="M283.145 138.716C281.723 138.716 280.567 137.56 280.567 136.134V109.581C280.567 108.154 281.723 106.999 283.145 106.999C284.572 106.999 285.727 108.154 285.727 109.581V136.134C285.727 137.56 284.572 138.716 283.145 138.716ZM267.153 111.761C266.684 111.761 266.239 111.85 265.812 112.027C265.388 112.205 265.016 112.447 264.694 112.747C264.364 113.052 264.114 113.407 263.936 113.822C263.754 114.237 263.665 114.677 263.665 115.147V130.568C263.665 131.037 263.754 131.478 263.936 131.892C264.114 132.303 264.364 132.663 264.694 132.968C265.016 133.268 265.388 133.509 265.812 133.687C266.239 133.865 266.684 133.954 267.153 133.954H268.665C269.13 133.954 269.566 133.865 269.968 133.687C270.375 133.509 270.722 133.26 271.027 132.946C271.327 132.633 271.564 132.273 271.733 131.859C271.898 131.444 271.983 131.016 271.983 130.568V115.147C271.983 114.698 271.898 114.275 271.733 113.873C271.564 113.467 271.336 113.111 271.043 112.802C270.751 112.489 270.408 112.235 270.006 112.044C269.604 111.854 269.177 111.761 268.732 111.761H267.153ZM268.931 106.999C270.028 106.999 271.052 107.219 272 107.655C272.948 108.091 273.778 108.679 274.481 109.428C275.183 110.182 275.738 111.045 276.14 112.027C276.542 113.014 276.741 114.051 276.741 115.147V130.568C276.741 131.664 276.534 132.701 276.123 133.687C275.708 134.669 275.145 135.533 274.43 136.286C273.714 137.031 272.872 137.624 271.898 138.06C270.925 138.496 269.892 138.716 268.796 138.716H267.153C266.015 138.716 264.944 138.5 263.936 138.077C262.929 137.653 262.061 137.069 261.32 136.337C260.584 135.596 259.996 134.737 259.564 133.751C259.128 132.769 258.908 131.706 258.908 130.568V115.147C258.908 114.008 259.128 112.946 259.564 111.964C259.996 110.978 260.584 110.118 261.32 109.378C262.061 108.645 262.929 108.061 263.936 107.634C264.944 107.215 266.015 106.999 267.153 106.999H268.931Z" fill="#2E3F62"/>
<path d="M311.341 126.589L304.67 113.302L297.995 126.589C297.546 127.486 296.623 128.057 295.62 128.057C293.664 128.057 292.378 126.009 293.228 124.244L300.103 109.97C300.945 108.218 302.719 107.1 304.666 107.1C306.613 107.1 308.391 108.218 309.233 109.97L316.107 124.244C316.958 126.009 315.671 128.057 313.716 128.057C312.712 128.057 311.79 127.486 311.341 126.589ZM319.083 136.519C319.083 137.734 318.101 138.716 316.886 138.716H292.45C291.235 138.716 290.253 137.734 290.253 136.519C290.253 135.308 291.235 134.322 292.45 134.322H316.886C318.101 134.322 319.083 135.308 319.083 136.519Z" fill="#2E3F62"/>
<path d="M347.864 138.716H347.563C346.332 138.716 345.333 137.717 345.333 136.485V124.735H342.331C341.1 124.735 340.105 123.736 340.105 122.504V122.237C340.105 121.005 341.1 120.006 342.331 120.006H345.333V109.225C345.333 107.998 346.332 106.999 347.563 106.999H347.864C349.096 106.999 350.09 107.998 350.09 109.225V136.485C350.09 137.717 349.096 138.716 347.864 138.716ZM323.271 109.725C323.271 108.311 324.418 107.168 325.832 107.168H336.029C337.26 107.168 338.259 108.163 338.259 109.395V109.462C338.259 110.694 337.26 111.693 336.029 111.693H328.27V120.244H335.326C336.558 120.244 337.553 121.238 337.553 122.47C337.553 123.702 336.558 124.697 335.326 124.697H328.27V134.089H336.634C337.866 134.089 338.865 135.088 338.865 136.32C338.865 137.552 337.866 138.547 336.634 138.547H325.832C324.418 138.547 323.271 137.399 323.271 135.986V109.725Z" fill="#2E3F62"/>
<path d="M363.169 134.322V123.075C363.169 121.865 364.151 120.878 365.365 120.878H365.865C367.076 120.878 368.062 121.865 368.062 123.075V134.322H374.365L376.109 111.829H358.91C357.67 111.829 356.663 110.821 356.663 109.581C356.663 108.341 357.67 107.333 358.91 107.333H379.152C380.248 107.333 381.137 108.222 381.137 109.318V111.829L379.393 134.322H381.429C382.644 134.322 383.626 135.304 383.626 136.519C383.626 137.734 382.644 138.716 381.429 138.716H356.815C355.6 138.716 354.618 137.734 354.618 136.519C354.618 135.304 355.6 134.322 356.815 134.322H363.169Z" fill="#2E3F62"/>
<path d="M394.18 131.473C393.778 131.473 393.435 131.613 393.156 131.892C392.876 132.172 392.737 132.51 392.737 132.913C392.737 133.319 392.876 133.658 393.156 133.937C393.435 134.212 393.778 134.356 394.18 134.356H408.259C408.661 134.356 409 134.212 409.283 133.937C409.563 133.658 409.702 133.319 409.702 132.913C409.702 132.51 409.563 132.172 409.283 131.892C409 131.613 408.661 131.473 408.259 131.473H394.18ZM413.389 109.246C413.389 110.394 412.458 111.321 411.311 111.321H394.18V114.377H411.311C412.458 114.377 413.389 115.308 413.389 116.451C413.389 117.602 412.458 118.529 411.311 118.529H391.611C390.197 118.529 389.05 117.386 389.05 115.973V109.725C389.05 108.311 390.197 107.168 391.611 107.168H411.311C412.458 107.168 413.389 108.099 413.389 109.246ZM408.259 127.114C409.084 127.114 409.863 127.266 410.587 127.566C411.315 127.867 411.946 128.278 412.483 128.79C413.021 129.302 413.444 129.911 413.757 130.618C414.071 131.321 414.227 132.087 414.227 132.913C414.227 133.738 414.071 134.508 413.757 135.211C413.444 135.914 413.021 136.527 412.483 137.052C411.946 137.577 411.315 137.988 410.587 138.276C409.863 138.568 409.084 138.716 408.259 138.716H394.18C393.351 138.716 392.576 138.568 391.848 138.276C391.124 137.988 390.489 137.577 389.956 137.052C389.418 136.527 388.991 135.914 388.682 135.211C388.368 134.508 388.212 133.738 388.212 132.913C388.212 132.087 388.368 131.321 388.682 130.618C388.991 129.911 389.418 129.302 389.956 128.79C390.489 128.278 391.124 127.867 391.848 127.566C392.576 127.266 393.351 127.114 394.18 127.114H408.259ZM415.633 123.025C415.633 124.117 414.748 125.001 413.656 125.001H388.783C387.691 125.001 386.802 124.117 386.802 123.025C386.802 121.932 387.691 121.048 388.783 121.048H413.656C414.748 121.048 415.633 121.932 415.633 123.025Z" fill="#2E3F62"/>
<path d="M431.357 117.928C431.357 117.551 431.272 117.187 431.107 116.84C430.938 116.493 430.718 116.193 430.434 115.934C430.155 115.68 429.82 115.477 429.431 115.333C429.041 115.185 428.631 115.113 428.207 115.113C427.759 115.113 427.344 115.185 426.967 115.333C426.586 115.477 426.252 115.68 425.96 115.934C425.668 116.193 425.443 116.493 425.274 116.84C425.105 117.187 425.024 117.551 425.024 117.928V118.5C425.024 118.897 425.105 119.266 425.274 119.604C425.443 119.943 425.668 120.239 425.96 120.493C426.252 120.751 426.586 120.955 426.967 121.099C427.344 121.242 427.759 121.314 428.207 121.314C428.631 121.314 429.041 121.242 429.431 121.099C429.82 120.955 430.155 120.751 430.434 120.493C430.718 120.239 430.938 119.943 431.107 119.604C431.272 119.266 431.357 118.897 431.357 118.5V117.928ZM446.896 117.594H445.74V130.898C445.74 131.258 445.71 131.613 445.647 131.969L444.792 136.849C444.606 137.929 443.666 138.716 442.57 138.716C441.164 138.716 440.102 137.442 440.352 136.058L441.181 131.435H423.196C422.112 131.435 421.232 130.559 421.232 129.48C421.232 128.396 422.112 127.52 423.196 127.52H440.745V109.496C440.745 108.121 441.863 106.999 443.243 106.999C444.623 106.999 445.74 108.121 445.74 109.496V113.069H446.896C448.149 113.069 449.16 114.08 449.16 115.333C449.16 116.582 448.149 117.594 446.896 117.594ZM430.557 108.171H434.696C435.797 108.171 436.69 109.064 436.69 110.169C436.69 111.27 435.797 112.163 434.696 112.163H432.529C433.63 112.815 434.481 113.657 435.086 114.69C435.501 115.393 435.683 116.21 435.683 117.022V119.122C435.683 119.841 435.53 120.561 435.209 121.204C434.785 122.064 434.18 122.792 433.401 123.41C432.711 123.96 431.899 124.388 430.972 124.701C430.045 125.014 429.079 125.171 428.072 125.171C427.043 125.171 426.083 125.014 425.189 124.701C424.296 124.388 423.513 123.96 422.844 123.41C422.095 122.796 421.519 122.072 421.122 121.217C420.8 120.544 420.664 119.795 420.664 119.05V117.158C420.664 116.044 420.952 115.062 421.536 114.224C422.116 113.386 422.853 112.7 423.746 112.163H421.655C420.55 112.163 419.657 111.27 419.657 110.169C419.657 109.064 420.55 108.171 421.655 108.171H425.862V107.304C425.862 106.013 426.912 104.959 428.207 104.959C429.503 104.959 430.557 106.013 430.557 107.304V108.171Z" fill="#2E3F62"/>
<path d="M455.563 134.256V124.182C455.563 122.95 456.562 121.955 457.794 121.955H458.192C459.424 121.955 460.423 122.95 460.423 124.182V134.256H463.407V124.182C463.407 122.95 464.406 121.955 465.638 121.955H466.04C467.272 121.955 468.266 122.95 468.266 124.182V134.256H470.916L472.66 111.826H455.462C454.222 111.826 453.214 110.823 453.214 109.582C453.214 108.342 454.222 107.335 455.462 107.335H475.45C476.686 107.335 477.689 108.338 477.689 109.574V111.826L475.945 134.256H477.769C479.001 134.256 480 135.251 480 136.482C480 137.714 479.001 138.717 477.769 138.717H453.4C452.169 138.717 451.17 137.714 451.17 136.482C451.17 135.251 452.169 134.256 453.4 134.256H455.563Z" fill="#2E3F62"/>
<path d="M258.472 10.9107V7.28736H255.869V21.785H251.221V14.5341H247.593V9.88636H251.221V6.25877H254.844V3.75713C254.302 3.67247 253.748 3.61321 253.181 3.61321C247.174 3.61321 242.306 8.48527 242.306 14.496C242.306 20.5025 247.174 25.3703 253.181 25.3703C259.187 25.3703 264.059 20.5025 264.059 14.496C264.059 13.2346 263.835 12.0324 263.437 10.9107H258.472Z" fill="#ADBFE3"/>
<path d="M254.842 7.28382H252.239V9.88287H254.842V7.28382Z" fill="#ADBFE3"/>
<path d="M254.842 10.9127H252.239V13.5117H254.842V10.9127Z" fill="#ADBFE3"/>
<path d="M248.615 13.5117H251.218V10.9127H248.615V13.5117Z" fill="#ADBFE3"/>
<path d="M254.842 14.5358H252.239V17.139H254.842V14.5358Z" fill="#ADBFE3"/>
<path d="M252.243 20.7664H254.847V18.1632H252.243V20.7664Z" fill="#ADBFE3"/>
<path d="M262.043 7.26253H259.44V9.86572H262.043V7.26253Z" fill="#ADBFE3"/>
<path d="M258.47 3.61812H255.867V6.22131H258.47V3.61812Z" fill="#ADBFE3"/>
<path d="M262.094 1.26362e-05H259.491V2.60333H262.094V1.26362e-05Z" fill="#ADBFE3"/>
<path d="M207.273 69.2492H184.699V55.742H207.273V69.2492ZM208.243 72.1614L216.755 39.9744C217.136 38.5225 217.83 37.2357 218.711 36.1098C217.953 33.7309 215.76 31.9996 213.144 31.9996C209.902 31.9996 207.273 34.641 207.273 37.9003V46.0359H184.699V37.8198C184.699 34.6028 182.104 31.9996 178.904 31.9996C175.709 31.9996 173.114 34.6028 173.114 37.8198V72.7667C173.114 76.1869 175.869 78.9552 179.268 78.9552H213.03C213.106 78.9552 213.178 78.934 213.254 78.9298C209.821 78.807 207.354 75.5265 208.243 72.1614Z" fill="#E74249"/>
<path d="M295.817 69.3973H272.062V41.6295H295.817V69.3973ZM301.282 32.0801H266.593C264.235 32.0801 262.229 33.5404 261.399 35.6102C262.538 36.897 263.389 38.4718 263.808 40.2369L271.567 72.9148C272.299 75.9964 269.975 78.9552 266.817 78.9552H301.282C304.376 78.9552 306.89 76.4324 306.89 73.3212V37.714C306.89 34.5986 304.376 32.0801 301.282 32.0801Z" fill="#00ABA6"/>
<path d="M234.593 72.1605L240.096 51.3474L237.458 40.2403C236.311 35.4063 232.015 32.003 227.071 32.003C223.723 32.003 220.692 33.5904 218.711 36.109C218.893 36.6804 219.016 37.273 219.016 37.8995V72.9436C219.016 73.2272 218.973 73.4981 218.931 73.7775L226.025 44.7314C226.305 43.5758 227.947 43.6054 228.193 44.761L234.521 74.658L234.525 74.6707C234.356 73.8706 234.364 73.0198 234.593 72.1605Z" fill="#006FB8"/>
<path d="M219.016 37.8993C219.016 37.2728 218.893 36.6802 218.711 36.1088C217.831 37.2347 217.136 38.5215 216.755 39.9734L208.243 72.1604C207.354 75.5298 209.822 78.806 213.255 78.9288C213.526 78.9203 213.792 78.8991 214.055 78.8526C214.148 78.8399 214.237 78.8187 214.326 78.8018C216.01 78.4293 217.407 77.3372 218.224 75.8726C218.389 75.534 218.58 75.2123 218.673 74.8356L218.931 73.7773C218.973 73.498 219.016 73.2271 219.016 72.9392V37.8993Z" fill="#262C3E"/>
<path d="M260.985 37.7144C260.985 36.9652 261.137 36.2583 261.4 35.6107C258.843 32.7238 254.805 31.2719 250.623 32.364C246.838 33.3588 244.011 36.5377 243.012 40.3176L240.095 51.3486L245.065 72.2676C245.247 73.0379 245.234 73.7914 245.103 74.511L252.108 45.85C252.392 44.6818 254.056 44.686 254.335 45.8585L261.04 73.8507C261.019 73.6771 260.985 73.5036 260.985 73.3215V37.7144Z" fill="#F4AB4A"/>
<path d="M271.565 72.9164L263.806 40.2385C263.387 38.4691 262.537 36.8987 261.398 35.6119C261.136 36.2595 260.983 36.9664 260.983 37.7157V73.3228C260.983 73.5048 261.017 73.6784 261.038 73.8519L261.068 74.0043C261.102 74.3472 261.169 74.6773 261.263 74.9948C261.271 75.0287 261.284 75.0625 261.292 75.0964C261.381 75.3673 261.491 75.6297 261.618 75.8752C261.66 75.9557 261.703 76.0319 261.745 76.1123C261.876 76.3451 262.024 76.5652 262.19 76.7726C262.223 76.8192 262.257 76.8615 262.291 76.8996C263.362 78.1695 265.013 78.9568 266.816 78.9568C269.974 78.9568 272.298 75.998 271.565 72.9164Z" fill="#2C8045"/>
<path d="M245.064 72.2668L240.099 51.3478L234.592 72.1609C234.367 73.0202 234.359 73.871 234.528 74.6668C234.647 75.2213 234.867 75.7208 235.134 76.1907C235.197 76.3049 235.265 76.415 235.337 76.5293C235.637 76.978 235.984 77.397 236.399 77.7357C236.412 77.7484 236.429 77.7526 236.442 77.7653C236.852 78.0955 237.322 78.3452 237.813 78.5399C237.923 78.5865 238.033 78.6288 238.143 78.6627C238.672 78.8362 239.223 78.9505 239.802 78.9505C240.365 78.9505 240.911 78.8447 241.428 78.6754C241.529 78.6457 241.627 78.6034 241.728 78.5653C242.757 78.1674 243.646 77.469 244.264 76.5504L244.336 76.4235C244.641 75.9451 244.882 75.4118 245.022 74.8319L245.102 74.5102C245.237 73.7906 245.246 73.0371 245.064 72.2668Z" fill="#26553D"/>
<path d="M227.641 3.21429C221.465 3.21429 216.453 8.24298 216.453 14.4526C216.453 20.6581 221.465 25.691 227.641 25.691C233.821 25.691 238.828 20.6581 238.828 14.4526C238.828 8.24298 233.821 3.21429 227.641 3.21429Z" fill="#ADBFE3"/>
</svg>
