<svg width="170" height="101" viewBox="0 0 170 101" fill="none" xmlns="http://www.w3.org/2000/svg">
<path d="M108.391 14.3199V9.72553H105.1V28.0921H99.2081V18.9088H94.6191V13.0225H99.2081V8.42818H103.802V5.25987C103.111 5.15265 102.414 5.0776 101.69 5.0776C94.083 5.0776 87.918 11.248 87.918 18.8552C87.918 26.4677 94.083 32.6328 101.69 32.6328C109.303 32.6328 115.468 26.4677 115.468 18.8552C115.468 17.263 115.184 15.7405 114.685 14.3199H108.391Z" fill="#ADBFE3"/>
<path d="M103.8 9.72511H100.503V13.022H103.8V9.72511Z" fill="#ADBFE3"/>
<path d="M103.8 14.3203H100.503V17.6119H103.8V14.3203Z" fill="#ADBFE3"/>
<path d="M95.9121 17.6119H99.209V14.3203H95.9121V17.6119Z" fill="#ADBFE3"/>
<path d="M103.8 18.9083H100.503V22.2H103.8V18.9083Z" fill="#ADBFE3"/>
<path d="M100.503 26.7937H103.8V23.5021H100.503V26.7937Z" fill="#ADBFE3"/>
<path d="M112.917 9.70356H109.625V13.0005H112.917V9.70356Z" fill="#ADBFE3"/>
<path d="M108.393 5.08172H105.102V8.37872H108.393V5.08172Z" fill="#ADBFE3"/>
<path d="M112.978 0.500052H109.681V3.79706H112.978V0.500052Z" fill="#ADBFE3"/>
<path d="M43.5519 88.2034H14.9619V71.0967H43.5519V88.2034ZM44.7795 91.8918L55.5549 51.1218C56.0428 49.2884 56.922 47.6587 58.0371 46.2327C57.0828 43.2252 54.3005 41.0271 50.9874 41.0271C46.881 41.0271 43.5519 44.3724 43.5519 48.5004V58.8041H14.9619V48.3984C14.9619 44.3295 11.6758 41.0271 7.62289 41.0271C3.57002 41.0271 0.289062 44.3295 0.289062 48.3984V92.6584C0.289062 96.99 3.77896 100.496 8.08915 100.496H50.8373C50.9391 100.496 51.0303 100.469 51.1268 100.464C46.7791 100.308 43.6537 96.1537 44.7795 91.8918Z" fill="#E74249"/>
<path d="M155.687 88.3911H125.601V53.2233H155.687V88.3911ZM162.613 41.1291H118.68C115.694 41.1291 113.153 42.984 112.097 45.6001C113.544 47.2298 114.622 49.2241 115.152 51.4649L124.979 92.846C125.901 96.7487 122.963 100.496 118.964 100.496H162.613C166.537 100.496 169.711 97.3009 169.711 93.3607V48.259C169.711 44.3241 166.537 41.1291 162.613 41.1291Z" fill="#00ABA6"/>
<path d="M78.1538 91.89L85.123 65.5249L81.7831 51.4632C80.3303 45.341 74.889 41.0308 68.6328 41.0308C64.3869 41.0308 60.5485 43.0411 58.0396 46.2309C58.2701 46.9493 58.4255 47.7051 58.4255 48.4986V92.8818C58.4255 93.241 58.3719 93.5841 58.3183 93.9325L67.3033 57.1511C67.6571 55.6876 69.7371 55.7197 70.0427 57.1886L78.0573 95.0476C78.0573 95.0583 78.068 95.069 78.068 95.069C77.8536 94.0558 77.8643 92.9783 78.1538 91.89Z" fill="#006FB8"/>
<path d="M58.426 48.5005C58.426 47.7071 58.2705 46.9512 58.04 46.2328C56.9249 47.6588 56.0458 49.2885 55.5579 51.122L44.7771 91.8919C43.6513 96.1539 46.7767 100.309 51.1298 100.464C51.4675 100.453 51.8106 100.421 52.1376 100.362C52.2556 100.351 52.3682 100.325 52.4861 100.303C54.6144 99.8315 56.3835 98.4483 57.4235 96.5935C57.6326 96.1646 57.8685 95.7518 57.9918 95.28L58.3134 93.9344C58.367 93.586 58.426 93.2429 58.426 92.8783V48.5005Z" fill="#262C3E"/>
<path d="M111.574 48.259C111.574 47.3155 111.767 46.4202 112.1 45.6C108.862 41.9438 103.747 40.105 98.4562 41.4881C93.6581 42.748 90.077 46.774 88.8119 51.5614L85.1182 65.5266L91.4119 92.0257C91.6424 93.0014 91.6263 93.9556 91.4602 94.867L100.333 58.5681C100.697 57.0885 102.799 57.0938 103.152 58.5735L111.644 94.0307C111.623 93.8055 111.574 93.5911 111.574 93.3606V48.259Z" fill="#F4AB4A"/>
<path d="M124.978 92.85L115.151 51.4636C114.62 49.2227 113.543 47.2284 112.101 45.6041C111.768 46.4243 111.575 47.3196 111.575 48.2631V93.3647C111.575 93.5952 111.623 93.8096 111.645 94.0348L111.688 94.2278C111.725 94.662 111.811 95.0802 111.929 95.4822C111.945 95.5251 111.956 95.568 111.967 95.6109C112.079 95.954 112.219 96.281 112.379 96.5973C112.433 96.6992 112.487 96.7957 112.546 96.8921C112.712 97.1924 112.894 97.4711 113.103 97.7338C113.146 97.7874 113.194 97.841 113.237 97.8893C114.593 99.5029 116.679 100.5 118.968 100.5C122.962 100.5 125.905 96.7528 124.978 92.85Z" fill="#2C8045"/>
<path d="M91.4131 92.0271L85.1193 65.528L78.1501 91.8931C77.866 92.9813 77.8553 94.0589 78.0697 95.0667C78.2145 95.7637 78.4986 96.3962 78.8363 96.9967C78.9167 97.1414 79.0025 97.2808 79.0936 97.4255C79.4743 97.9938 79.9085 98.5245 80.4392 98.9534C80.4553 98.9695 80.4768 98.9749 80.4929 98.9909C81.0129 99.4037 81.6079 99.7254 82.2298 99.972C82.3692 100.026 82.5086 100.079 82.6479 100.127C83.3127 100.347 84.015 100.492 84.7494 100.492C85.4678 100.492 86.154 100.353 86.808 100.144C86.9367 100.101 87.06 100.052 87.1887 100.004C88.4914 99.5002 89.6172 98.6157 90.3999 97.447C90.4267 97.3987 90.4588 97.3451 90.491 97.2915C90.8716 96.6804 91.1826 96.0103 91.3595 95.2758L91.4613 94.8684C91.6275 93.957 91.6436 93.0028 91.4131 92.0271Z" fill="#26553D"/>
<path d="M69.3467 4.57041C61.5197 4.57041 55.1724 10.9392 55.1724 18.8037C55.1724 26.6628 61.5197 33.037 69.3467 33.037C77.1736 33.037 83.5156 26.6628 83.5156 18.8037C83.5156 10.9392 77.1736 4.57041 69.3467 4.57041Z" fill="#ADBFE3"/>
</svg>
