<svg width="16" height="8" viewBox="0 0 16 8" fill="none" xmlns="http://www.w3.org/2000/svg">
<path d="M1.05821 6.66019L7.50481 0.194175C7.56953 0.12945 7.6441 0.0810357 7.7285 0.0489322C7.81238 0.0163108 7.89963 -3.9609e-09 7.99024 0C8.08086 3.9609e-09 8.16837 0.0163108 8.25277 0.0489322C8.33665 0.0810358 8.41096 0.12945 8.47568 0.194175L14.9417 6.6602C15.097 6.81554 15.1747 6.99676 15.1747 7.20388C15.1747 7.411 15.0906 7.59871 14.9223 7.76699C14.7799 7.92233 14.602 8 14.3887 8C14.1748 8 13.9902 7.92233 13.8349 7.76699L7.99024 1.90291L2.12617 7.76699C1.98377 7.90939 1.80901 7.98058 1.60189 7.98058C1.39477 7.98058 1.21355 7.90291 1.05821 7.74757C0.902866 7.59223 0.825195 7.411 0.825195 7.20388C0.825195 6.99676 0.902866 6.81553 1.05821 6.66019Z" fill="#70737C"/>
</svg>
