<svg width="16" height="8" viewBox="0 0 16 8" fill="none" xmlns="http://www.w3.org/2000/svg">
<path d="M14.9417 1.3398L8.4951 7.80582C8.43037 7.87055 8.35581 7.91896 8.27141 7.95107C8.18753 7.98369 8.10028 8 8.00966 8C7.91905 8 7.83154 7.98369 7.74714 7.95107C7.66325 7.91896 7.58895 7.87055 7.52422 7.80582L1.0582 1.33981C0.902865 1.18446 0.825195 1.00324 0.825195 0.796116C0.825195 0.588997 0.909337 0.401294 1.07762 0.233009C1.22002 0.0776696 1.39788 -2.50329e-08 1.61121 -3.4358e-08C1.82507 -4.37057e-08 2.00966 0.0776696 2.165 0.233009L8.00966 6.09709L13.8737 0.233009C14.0161 0.0906137 14.1909 0.0194167 14.398 0.0194167C14.6051 0.0194167 14.7864 0.0970863 14.9417 0.252426C15.097 0.407766 15.1747 0.588996 15.1747 0.796116C15.1747 1.00324 15.097 1.18446 14.9417 1.3398Z" fill="#70737C"/>
</svg>
