<svg width="16" height="16" viewBox="0 0 16 16" fill="none" xmlns="http://www.w3.org/2000/svg">
<path d="M14.6343 15.759L10.5503 11.7018C10.0148 12.1481 9.3989 12.4962 8.70269 12.7461C8.00647 12.996 7.29241 13.121 6.56049 13.121C4.72177 13.121 3.16867 12.4872 1.9012 11.2198C0.633734 9.9523 0 8.39921 0 6.56049C0 4.73962 0.633734 3.19081 1.9012 1.91406C3.16867 0.638019 4.72177 0 6.56049 0C8.38136 0 9.92553 0.633734 11.193 1.9012C12.4605 3.16867 13.0942 4.72177 13.0942 6.56049C13.0942 7.32811 12.9692 8.06003 12.7193 8.75624C12.4694 9.45246 12.1302 10.0594 11.7018 10.5771L15.7858 14.6611C15.9286 14.8039 16 14.9825 16 15.1967C16 15.4109 15.9197 15.5983 15.759 15.759C15.5983 15.9197 15.4066 16 15.1838 16C14.9603 16 14.7772 15.9197 14.6343 15.759ZM6.56049 11.5143C7.93507 11.5143 9.10007 11.0323 10.0555 10.0683C11.0102 9.10435 11.4875 7.93507 11.4875 6.56049C11.4875 5.18591 11.0102 4.01662 10.0555 3.05263C9.10007 2.08864 7.93507 1.60665 6.56049 1.60665C5.16806 1.60665 3.99449 2.08864 3.03978 3.05263C2.08436 4.01662 1.60665 5.18591 1.60665 6.56049C1.60665 7.93507 2.08436 9.10435 3.03978 10.0683C3.99449 11.0323 5.16806 11.5143 6.56049 11.5143Z" fill="#9497A0"/>
</svg>
