<svg width="22" height="19" viewBox="0 0 22 19" fill="none" xmlns="http://www.w3.org/2000/svg">
<path d="M14.775 9.975L13.65 8.85C13.8 8.01667 13.5626 7.271 12.938 6.613C12.3126 5.95433 11.55 5.7 10.65 5.85L9.52495 4.725C9.75828 4.625 9.99162 4.55 10.225 4.5C10.4583 4.45 10.7166 4.425 11 4.425C12.1333 4.425 13.0956 4.821 13.887 5.613C14.679 6.40433 15.075 7.36667 15.075 8.5C15.075 8.78333 15.05 9.04567 15 9.287C14.95 9.529 14.875 9.75833 14.775 9.975ZM17.95 13.075L16.85 12.05C17.4833 11.5667 18.0459 11.0373 18.538 10.462C19.0293 9.88733 19.4499 9.23333 19.7999 8.5C18.9666 6.81667 17.7706 5.479 16.212 4.487C14.654 3.49567 12.9166 3 11 3C10.5166 3 10.0416 3.03333 9.57495 3.1C9.10828 3.16667 8.64995 3.26667 8.19995 3.4L7.02495 2.225C7.65828 1.975 8.30429 1.79167 8.96295 1.675C9.62095 1.55833 10.3 1.5 11 1.5C13.2166 1.5 15.2373 2.08733 17.062 3.262C18.8873 4.43733 20.2666 5.98333 21.2 7.9C21.2333 7.96667 21.2583 8.054 21.275 8.162C21.2916 8.27067 21.2999 8.38333 21.2999 8.5C21.2999 8.61667 21.2916 8.729 21.275 8.837C21.2583 8.94567 21.2333 9.03333 21.2 9.1C20.8166 9.88333 20.354 10.6083 19.812 11.275C19.2706 11.9417 18.65 12.5417 17.95 13.075ZM18.225 18.35L14.725 14.85C14.2083 15.05 13.6376 15.2083 13.013 15.325C12.3876 15.4417 11.7166 15.5 11 15.5C8.76662 15.5 6.74162 14.9127 4.92495 13.738C3.10828 12.5627 1.73328 11.0167 0.799951 9.1C0.766618 9.03333 0.741618 8.94567 0.724951 8.837C0.708284 8.729 0.699951 8.61667 0.699951 8.5C0.699951 8.38333 0.708284 8.275 0.724951 8.175C0.741618 8.075 0.766618 7.98333 0.799951 7.9C1.18328 7.13333 1.64162 6.425 2.17495 5.775C2.70828 5.125 3.28328 4.55 3.89995 4.05L1.64995 1.775C1.49995 1.625 1.42495 1.45 1.42495 1.25C1.42495 1.05 1.49995 0.866667 1.64995 0.7C1.79995 0.566667 1.97928 0.5 2.18795 0.5C2.39595 0.5 2.56662 0.566667 2.69995 0.7L19.2999 17.3C19.4333 17.4333 19.5043 17.6 19.513 17.8C19.521 18 19.4499 18.1833 19.2999 18.35C19.15 18.4833 18.971 18.55 18.763 18.55C18.5543 18.55 18.375 18.4833 18.225 18.35ZM4.94995 5.1C4.41662 5.51667 3.90428 6.021 3.41295 6.613C2.92095 7.20433 2.51662 7.83333 2.19995 8.5C3.03328 10.1833 4.22895 11.5207 5.78695 12.512C7.34562 13.504 9.08328 14 11 14C11.45 14 11.9 13.9623 12.35 13.887C12.8 13.8123 13.1833 13.7333 13.5 13.65L12.25 12.35C12.0666 12.4167 11.8666 12.4707 11.65 12.512C11.4333 12.554 11.2166 12.575 11 12.575C9.86662 12.575 8.90428 12.179 8.11295 11.387C7.32095 10.5957 6.92495 9.63333 6.92495 8.5C6.92495 8.3 6.94595 8.08733 6.98795 7.862C7.02928 7.63733 7.08328 7.43333 7.14995 7.25L4.94995 5.1Z" fill="#9497A0"/>
</svg>
