<svg width="22" height="14" viewBox="0 0 22 14" fill="none" xmlns="http://www.w3.org/2000/svg">
<path d="M11 11.075C12.1333 11.075 13.0956 10.679 13.887 9.887C14.679 9.09567 15.075 8.13333 15.075 7C15.075 5.86667 14.679 4.90433 13.887 4.113C13.0956 3.321 12.1333 2.925 11 2.925C9.86662 2.925 8.90428 3.321 8.11295 4.113C7.32095 4.90433 6.92495 5.86667 6.92495 7C6.92495 8.13333 7.32095 9.09567 8.11295 9.887C8.90428 10.679 9.86662 11.075 11 11.075ZM11 9.7C10.25 9.7 9.61262 9.43733 9.08795 8.912C8.56262 8.38733 8.29995 7.75 8.29995 7C8.29995 6.25 8.56262 5.61233 9.08795 5.087C9.61262 4.56233 10.25 4.3 11 4.3C11.75 4.3 12.3876 4.56233 12.913 5.087C13.4376 5.61233 13.7 6.25 13.7 7C13.7 7.75 13.4376 8.38733 12.913 8.912C12.3876 9.43733 11.75 9.7 11 9.7ZM11 14C8.81662 14 6.81228 13.425 4.98695 12.275C3.16228 11.125 1.76662 9.56667 0.799951 7.6C0.766618 7.53333 0.741618 7.44567 0.724951 7.337C0.708284 7.229 0.699951 7.11667 0.699951 7C0.699951 6.88333 0.708284 6.77067 0.724951 6.662C0.741618 6.554 0.766618 6.46667 0.799951 6.4C1.76662 4.43333 3.16228 2.875 4.98695 1.725C6.81228 0.575 8.81662 0 11 0C13.1833 0 15.1873 0.575 17.0119 1.725C18.8373 2.875 20.2333 4.43333 21.2 6.4C21.2333 6.46667 21.2583 6.554 21.275 6.662C21.2916 6.77067 21.2999 6.88333 21.2999 7C21.2999 7.11667 21.2916 7.229 21.275 7.337C21.2583 7.44567 21.2333 7.53333 21.2 7.6C20.2333 9.56667 18.8373 11.125 17.0119 12.275C15.1873 13.425 13.1833 14 11 14ZM11 12.5C12.8833 12.5 14.6126 12.004 16.188 11.012C17.7626 10.0207 18.9666 8.68333 19.7999 7C18.9666 5.31667 17.7626 3.979 16.188 2.987C14.6126 1.99567 12.8833 1.5 11 1.5C9.11662 1.5 7.38728 1.99567 5.81195 2.987C4.23728 3.979 3.03328 5.31667 2.19995 7C3.03328 8.68333 4.23728 10.0207 5.81195 11.012C7.38728 12.004 9.11662 12.5 11 12.5Z" fill="#9497A0"/>
</svg>
