<svg width="24" height="24" viewBox="0 0 24 24" fill="none" xmlns="http://www.w3.org/2000/svg">
<mask id="mask0_280_516" style="mask-type:alpha" maskUnits="userSpaceOnUse" x="0" y="0" width="24" height="24">
<rect width="24" height="24" fill="#D9D9D9"/>
</mask>
<g mask="url(#mask0_280_516)">
<path d="M12 16.075C13.1333 16.075 14.0956 15.679 14.887 14.887C15.679 14.0957 16.075 13.1333 16.075 12C16.075 10.8667 15.679 9.90433 14.887 9.113C14.0956 8.321 13.1333 7.925 12 7.925C10.8666 7.925 9.90428 8.321 9.11295 9.113C8.32095 9.90433 7.92495 10.8667 7.92495 12C7.92495 13.1333 8.32095 14.0957 9.11295 14.887C9.90428 15.679 10.8666 16.075 12 16.075ZM12 14.7C11.25 14.7 10.6126 14.4373 10.088 13.912C9.56262 13.3873 9.29995 12.75 9.29995 12C9.29995 11.25 9.56262 10.6123 10.088 10.087C10.6126 9.56233 11.25 9.3 12 9.3C12.75 9.3 13.3876 9.56233 13.913 10.087C14.4376 10.6123 14.7 11.25 14.7 12C14.7 12.75 14.4376 13.3873 13.913 13.912C13.3876 14.4373 12.75 14.7 12 14.7ZM12 19C9.81662 19 7.81228 18.425 5.98695 17.275C4.16228 16.125 2.76662 14.5667 1.79995 12.6C1.76662 12.5333 1.74162 12.4457 1.72495 12.337C1.70828 12.229 1.69995 12.1167 1.69995 12C1.69995 11.8833 1.70828 11.7707 1.72495 11.662C1.74162 11.554 1.76662 11.4667 1.79995 11.4C2.76662 9.43333 4.16228 7.875 5.98695 6.725C7.81228 5.575 9.81662 5 12 5C14.1833 5 16.1873 5.575 18.0119 6.725C19.8373 7.875 21.2333 9.43333 22.2 11.4C22.2333 11.4667 22.2583 11.554 22.275 11.662C22.2916 11.7707 22.2999 11.8833 22.2999 12C22.2999 12.1167 22.2916 12.229 22.275 12.337C22.2583 12.4457 22.2333 12.5333 22.2 12.6C21.2333 14.5667 19.8373 16.125 18.0119 17.275C16.1873 18.425 14.1833 19 12 19ZM12 17.5C13.8833 17.5 15.6126 17.004 17.188 16.012C18.7626 15.0207 19.9666 13.6833 20.7999 12C19.9666 10.3167 18.7626 8.979 17.188 7.987C15.6126 6.99567 13.8833 6.5 12 6.5C10.1166 6.5 8.38728 6.99567 6.81195 7.987C5.23728 8.979 4.03328 10.3167 3.19995 12C4.03328 13.6833 5.23728 15.0207 6.81195 16.012C8.38728 17.004 10.1166 17.5 12 17.5Z" fill="#9497A0"/>
</g>
</svg>
